<?xml version="1.0" standalone="no"?>
<!DOCTYPE svg PUBLIC "-//W3C//DTD SVG 1.1//EN" "http://www.w3.org/Graphics/SVG/1.1/DTD/svg11.dtd" >
<svg xmlns="http://www.w3.org/2000/svg" xmlns:xlink="http://www.w3.org/1999/xlink" version="1.1">
<metadata>
Created by FontForge 20200314 at Wed May 16 17:49:40 2007
 By Unknown
Copyright 1990-1999 as an unpublished work by Bitstream Inc.  All rights reserved.  Confidential.
</metadata>
<defs>
<font id="CheltenhamBT-Roman" horiz-adv-x="500" >
  <font-face 
    font-family="Cheltenham"
    font-weight="500"
    font-stretch="normal"
    units-per-em="1000"
    panose-1="0 0 0 0 0 0 0 0 0 0"
    ascent="800"
    descent="-200"
    x-height="393"
    cap-height="722"
    bbox="-167 -236 1101 963"
    underline-thickness="49"
    underline-position="-105"
    stemh="37"
    stemv="83"
    unicode-range="U+0020-FB02"
  />
<missing-glyph horiz-adv-x="252" 
 />
    <glyph glyph-name=".notdef" horiz-adv-x="252" 
 />
    <glyph glyph-name="space" unicode=" " horiz-adv-x="252" 
 />
    <glyph glyph-name="exclam" unicode="!" horiz-adv-x="310" 
d="M136 156l-39 520h116l-40 -520h-37zM95 54c0 32 27 60 60 60s60 -27 60 -60s-28 -60 -60 -60c-31 0 -60 28 -60 60z" />
    <glyph glyph-name="quotedbl" unicode="&#x22;" horiz-adv-x="335" 
d="M95 420h-17l-34 224c-1 7 -2 14 -2 20c0 32 17 50 44 50c28 0 44 -18 44 -52c0 -7 0 -12 -1 -18zM257 420h-17l-34 224c-1 7 -1 12 -1 18c0 33 15 52 43 52c27 0 44 -18 44 -50c0 -6 0 -13 -1 -20z" />
    <glyph glyph-name="numbersign" unicode="#" horiz-adv-x="769" 
d="M371 712h76l-79 -222h135l79 222h76l-79 -222h147l-24 -68h-147l-47 -135h156l-24 -68h-156l-79 -221h-76l79 221h-136l-79 -221h-75l78 221h-153l25 68h152l48 135h-164l25 68h163zM343 422l-48 -135h138l47 135h-137z" />
    <glyph glyph-name="dollar" unicode="$" horiz-adv-x="505" 
d="M219 -97v94c-118 6 -182 51 -182 114c0 39 22 63 53 63c29 0 47 -18 47 -46c0 -29 -21 -40 -21 -49c0 -19 36 -35 103 -38v273c-122 27 -181 78 -181 164c0 90 68 158 181 166v83h47v-83c100 -11 152 -49 152 -104c0 -34 -22 -58 -52 -58c-26 0 -43 17 -43 43
c0 28 20 38 20 47c0 12 -26 26 -77 31v-199c138 -36 203 -98 203 -200c0 -114 -76 -192 -203 -203v-98h-47zM266 41c80 3 129 52 129 125c0 69 -40 107 -129 132v-257zM219 421v182c-65 -4 -99 -36 -99 -91c0 -49 30 -73 99 -91z" />
    <glyph glyph-name="percent" unicode="%" horiz-adv-x="771" 
d="M27 485c0 122 76 214 153 214c84 0 153 -78 153 -193c0 -123 -77 -214 -153 -214c-83 0 -153 79 -153 193zM180 664c-51 0 -70 -61 -70 -184c0 -105 13 -154 70 -154c48 0 71 56 71 169c0 115 -11 169 -71 169zM437 192c0 122 77 214 154 214c84 0 153 -78 153 -193
c0 -123 -77 -214 -153 -214c-83 0 -154 79 -154 193zM591 372c-51 0 -71 -62 -71 -185c0 -105 14 -153 71 -153c48 0 70 56 70 169c0 115 -10 169 -70 169zM159 -12l400 723h53l-400 -723h-53z" />
    <glyph glyph-name="ampersand" unicode="&#x26;" horiz-adv-x="735" 
d="M486 98c-64 -75 -129 -110 -214 -110c-132 0 -224 89 -224 213c0 94 55 165 164 214c-43 46 -65 87 -65 133c0 73 55 128 126 128c78 0 128 -50 128 -119c0 -53 -24 -90 -76 -121c68 -67 131 -140 191 -220c35 55 52 97 52 122c0 13 -10 24 -31 33c-17 7 -30 7 -30 23v21
h191v-21c0 -26 -30 -13 -59 -41c-24 -23 -42 -88 -96 -173c58 -87 101 -133 139 -133c10 0 19 4 28 11l18 -28c-21 -27 -53 -42 -91 -42c-60 0 -97 38 -151 110zM462 137c-49 71 -120 152 -213 247c-64 -33 -97 -90 -97 -167c0 -107 63 -177 149 -177c60 0 112 32 161 97z
M295 465c32 27 49 62 49 98c0 43 -27 73 -62 73c-32 0 -54 -25 -54 -60c0 -36 23 -69 67 -111z" />
    <glyph glyph-name="quoteright" unicode="&#x2019;" horiz-adv-x="252" 
d="M149 627c-10 -4 -19 -6 -27 -6c-32 0 -56 22 -56 53c0 36 24 60 57 60c47 0 76 -32 76 -88c0 -51 -33 -103 -99 -156l-25 27c44 37 69 70 74 110z" />
    <glyph glyph-name="parenleft" unicode="(" horiz-adv-x="370" 
d="M361 -135c-171 96 -262 249 -262 435s91 338 262 434v-30c-117 -94 -175 -229 -175 -404s58 -311 175 -405v-30z" />
    <glyph glyph-name="parenright" unicode=")" horiz-adv-x="370" 
d="M11 -135v30c117 94 176 230 176 405s-59 310 -176 404v30c171 -96 262 -248 262 -434s-91 -339 -262 -435z" />
    <glyph glyph-name="asterisk" unicode="*" 
d="M257 518v-7c0 -64 37 -104 37 -141c0 -23 -16 -42 -44 -42c-29 0 -45 17 -45 43c0 34 37 70 37 136v12c-42 -25 -57 -46 -67 -60c-22 -30 -37 -52 -65 -52c-23 0 -43 19 -43 44c0 32 24 47 73 51c41 3 72 11 94 30c-39 28 -76 27 -112 30c-35 3 -55 24 -55 49
c0 24 18 45 42 45c32 0 45 -26 65 -53c18 -25 40 -44 69 -59v5c0 68 -38 108 -38 140c0 26 17 45 45 45c29 0 44 -16 44 -43c0 -34 -36 -72 -36 -138v-10c23 15 44 28 67 60c21 29 36 53 67 53c21 0 41 -24 41 -46c0 -24 -23 -45 -50 -47c-46 -4 -85 -7 -117 -33
c42 -27 79 -27 112 -30c34 -3 55 -23 55 -51c0 -22 -22 -44 -44 -44c-29 0 -44 25 -64 53c-19 26 -39 46 -68 60z" />
    <glyph glyph-name="plus" unicode="+" horiz-adv-x="833" 
d="M382 596h69v-264h258v-68h-258v-264h-69v264h-258v68h258v264z" />
    <glyph glyph-name="comma" unicode="," horiz-adv-x="252" 
d="M141 7c-10 -4 -19 -6 -27 -6c-32 0 -56 22 -56 53c0 36 24 60 57 60c47 0 76 -32 76 -88c0 -51 -32 -103 -98 -156l-26 27c44 37 69 70 74 110z" />
    <glyph glyph-name="hyphen" unicode="-" horiz-adv-x="269" 
d="M28 170v65h213v-65h-213z" />
    <glyph glyph-name="period" unicode="." horiz-adv-x="252" 
d="M66 54c0 32 27 60 60 60s60 -27 60 -60s-28 -60 -60 -60c-31 0 -60 28 -60 60z" />
    <glyph glyph-name="slash" unicode="/" horiz-adv-x="278" 
d="M-45 -93l285 827h54l-285 -827h-54z" />
    <glyph glyph-name="zero" unicode="0" horiz-adv-x="505" 
d="M30 331c0 90 18 172 54 244c45 89 108 136 168 136c120 0 223 -135 223 -343c0 -91 -18 -172 -54 -242c-46 -90 -108 -138 -169 -138c-119 0 -222 134 -222 343zM252 669c-83 0 -115 -111 -115 -336c0 -205 21 -303 113 -303c83 0 118 106 118 320
c0 217 -16 319 -116 319z" />
    <glyph glyph-name="one" unicode="1" horiz-adv-x="505" 
d="M217 0v614h-60v20c0 24 52 25 148 77v-711h-88z" />
    <glyph glyph-name="two" unicode="2" horiz-adv-x="505" 
d="M5 0v36c207 236 320 396 320 512c0 70 -40 113 -102 113c-54 0 -104 -33 -152 -100l-22 15c-4 2 -6 7 -6 11c0 7 8 19 24 37c52 58 114 87 188 87c105 0 173 -64 173 -162c0 -121 -125 -251 -324 -465h216c36 0 56 4 71 31c10 17 14 29 29 29h19l-23 -144h-411z" />
    <glyph glyph-name="three" unicode="3" horiz-adv-x="505" 
d="M16 -7l1 28c1 12 7 13 22 13c5 0 14 -1 28 -1c154 0 265 99 265 212c0 72 -44 117 -111 117c-27 0 -55 -8 -86 -23l-10 15c-2 3 -3 6 -3 10c0 17 24 25 62 50c84 57 132 100 132 162c0 49 -31 81 -80 81c-51 0 -103 -35 -162 -106l-15 18c-4 5 -7 8 -7 12
c0 8 12 27 37 51c55 52 114 79 171 79c81 0 134 -49 134 -124c0 -64 -43 -115 -131 -163h10c101 0 162 -62 162 -162c0 -72 -34 -139 -98 -193c-64 -53 -150 -80 -258 -80c-20 0 -41 1 -63 4z" />
    <glyph glyph-name="four" unicode="4" horiz-adv-x="505" 
d="M299 0v213h-289v32l342 466h33v-420c19 0 33 7 40 22c9 19 12 34 24 34h20l-24 -134h-60v-213h-86zM98 291h201v275z" />
    <glyph glyph-name="five" unicode="5" horiz-adv-x="505" 
d="M143 699h146c44 0 50 22 61 22h25l-25 -115h-179l-38 -174c35 22 72 31 117 31c115 0 189 -76 189 -192c0 -160 -130 -283 -311 -283c-23 0 -52 4 -87 10l7 31c1 6 7 10 17 10c11 0 27 -2 49 -2c139 0 221 88 221 225c0 97 -45 151 -121 151c-37 0 -71 -14 -107 -40
l-30 20z" />
    <glyph glyph-name="six" unicode="6" horiz-adv-x="505" 
d="M145 376c44 42 88 60 146 60c107 0 187 -85 187 -220c0 -59 -21 -117 -60 -161c-38 -43 -92 -67 -148 -67c-138 0 -240 115 -240 289c0 200 134 375 336 433l8 -22c1 -2 1 -3 1 -5c0 -15 -25 -19 -59 -42c-105 -70 -159 -148 -171 -265zM140 313c-2 -22 -2 -43 -2 -62
c0 -145 45 -220 126 -220c68 0 113 61 113 171c0 118 -43 181 -119 181c-45 0 -84 -23 -118 -70z" />
    <glyph glyph-name="seven" unicode="7" horiz-adv-x="505" 
d="M384 616h-195c-35 0 -46 0 -59 -23c-10 -18 -9 -30 -24 -30h-21l-18 136h387l-250 -699h-128z" />
    <glyph glyph-name="eight" unicode="8" horiz-adv-x="505" 
d="M355 407c80 -43 117 -103 117 -190c0 -135 -93 -229 -224 -229c-130 0 -220 90 -220 217c0 71 30 132 89 197c-36 32 -55 77 -55 129c0 103 79 180 187 180c109 0 184 -71 184 -165c0 -55 -26 -104 -78 -139zM322 423c19 30 29 70 29 119c0 83 -37 127 -102 127
c-60 0 -98 -40 -98 -103c0 -83 52 -106 171 -143zM157 376c-26 -58 -38 -115 -38 -172c0 -111 52 -174 137 -174c76 0 132 61 132 148c0 50 -18 91 -52 118c-45 36 -109 49 -179 80z" />
    <glyph glyph-name="nine" unicode="9" horiz-adv-x="505" 
d="M359 323c-43 -41 -87 -60 -140 -60c-113 0 -193 85 -193 213c0 137 92 235 208 235c138 0 240 -115 240 -289c0 -200 -134 -375 -336 -433l-8 22c-1 2 -1 3 -1 5c0 17 37 23 95 67c80 61 124 139 135 240zM364 386c2 22 2 43 2 62c0 145 -45 220 -126 220
c-68 0 -113 -61 -113 -171c0 -118 43 -181 119 -181c45 0 84 23 118 70z" />
    <glyph glyph-name="colon" unicode=":" horiz-adv-x="264" 
d="M72 54c0 32 27 60 60 60s60 -27 60 -60s-28 -60 -60 -60c-31 0 -60 28 -60 60zM72 345c0 32 27 60 60 60s60 -27 60 -60s-28 -60 -60 -60c-31 0 -60 28 -60 60z" />
    <glyph glyph-name="semicolon" unicode=";" horiz-adv-x="264" 
d="M72 345c0 32 27 60 60 60s60 -27 60 -60s-28 -60 -60 -60c-31 0 -60 28 -60 60zM147 7c-10 -4 -19 -6 -27 -6c-32 0 -56 22 -56 53c0 36 24 60 57 60c47 0 76 -32 76 -88c0 -51 -32 -103 -98 -156l-25 27c44 37 68 70 73 110z" />
    <glyph glyph-name="less" unicode="&#x3c;" horiz-adv-x="833" 
d="M704 566v-75l-473 -193l473 -192v-75l-575 236v63z" />
    <glyph glyph-name="equal" unicode="=" horiz-adv-x="833" 
d="M124 429h585v-68h-585v68zM124 235h585v-68h-585v68z" />
    <glyph glyph-name="greater" unicode="&#x3e;" horiz-adv-x="833" 
d="M129 566l575 -236v-63l-575 -236v75l474 192l-474 193v75z" />
    <glyph glyph-name="question" unicode="?" horiz-adv-x="444" 
d="M100 54c0 32 27 60 60 60s60 -27 60 -60s-28 -60 -60 -60c-31 0 -60 28 -60 60zM144 161l-29 124l16 16c26 -17 48 -24 66 -24c47 0 72 37 72 109c0 74 -20 141 -52 192c-22 35 -40 53 -55 53c-14 0 -14 -10 -16 -22c-5 -24 -18 -36 -40 -36c-27 0 -46 20 -46 50
c0 33 26 53 71 53s92 -24 136 -71c64 -69 96 -147 96 -223c0 -108 -52 -171 -132 -171c-18 0 -39 4 -64 11l14 -67z" />
    <glyph glyph-name="at" unicode="@" horiz-adv-x="986" 
d="M539 469c-37 0 -64 -21 -92 -63c-49 -74 -76 -163 -76 -226c0 -58 30 -93 69 -93c42 0 79 28 114 86c39 65 60 144 60 196c0 61 -31 100 -75 100zM579 162c-40 -68 -89 -101 -150 -101c-84 0 -138 65 -138 165c0 70 33 143 93 201c45 43 98 65 147 65
c58 0 95 -32 108 -93l25 85h77l-84 -299c-4 -15 -9 -31 -9 -48c0 -33 16 -52 44 -52c19 0 53 12 83 35c77 59 117 150 117 267c0 87 -34 160 -102 218c-58 50 -141 78 -235 78c-117 0 -220 -41 -298 -118c-82 -81 -124 -188 -124 -315c0 -116 34 -199 115 -267
c70 -59 167 -93 274 -93c110 0 212 33 306 101l16 -20c-96 -72 -205 -108 -321 -108c-124 0 -226 30 -303 88c-98 74 -151 183 -151 311c0 132 57 250 165 339c87 72 192 109 311 109c226 0 373 -134 373 -336c0 -104 -40 -198 -110 -261c-39 -35 -84 -53 -127 -53
c-62 0 -97 35 -102 102z" />
    <glyph glyph-name="A" unicode="A" horiz-adv-x="769" 
d="M178 213l-44 -97c-7 -15 -9 -28 -9 -38c0 -35 44 -32 44 -55v-23h-178v20c0 22 12 18 31 29c30 17 53 56 82 116l237 485l-20 34c-3 4 -4 8 -4 12c0 13 14 14 31 21c20 9 30 25 44 25c6 0 8 -4 12 -13l277 -581c23 -48 39 -83 76 -104c13 -7 19 -9 19 -23v-21h-223v23
c0 23 44 20 44 55c0 10 -3 23 -10 38l-42 97h-367zM199 259h323l-157 342z" />
    <glyph glyph-name="B" unicode="B" horiz-adv-x="662" 
d="M48 0v22c0 14 7 17 17 22c30 14 41 23 41 73v489c0 49 -11 58 -41 72c-10 5 -17 9 -17 23v21h263c177 0 268 -65 268 -181c0 -95 -54 -152 -164 -177c137 -12 200 -66 200 -175c0 -123 -91 -189 -268 -189h-299zM201 44h140c120 0 176 47 176 154c0 103 -67 141 -208 141
h-108v-295zM201 383h109c119 0 178 49 178 152c0 108 -64 143 -204 143h-83v-295z" />
    <glyph glyph-name="C" unicode="C" horiz-adv-x="682" 
d="M661 134c-71 -94 -173 -146 -285 -146c-89 0 -167 29 -229 84c-75 67 -117 164 -117 278s37 209 107 280c67 68 154 104 250 104c104 0 164 -40 181 -40c11 0 19 4 26 4h17v-164h-13c-24 0 -19 11 -26 30c-30 85 -92 131 -182 131c-153 0 -251 -121 -251 -334
c0 -201 100 -316 261 -316c87 0 168 39 234 116z" />
    <glyph glyph-name="D" unicode="D" horiz-adv-x="753" 
d="M201 49c34 -3 62 -5 84 -5c211 0 332 117 332 317c0 201 -121 317 -332 317c-23 0 -52 -2 -84 -5v-624zM48 0v22c0 14 7 17 17 22c30 14 41 23 41 73v489c0 49 -11 58 -41 72c-10 5 -17 9 -17 23v21h249c275 0 429 -135 429 -354s-163 -368 -417 -368h-261z" />
    <glyph glyph-name="E" unicode="E" horiz-adv-x="667" 
d="M48 0v22c0 14 7 17 17 22c30 14 41 23 41 73v489c0 49 -11 58 -41 72c-10 5 -17 9 -17 23v21h451c24 0 50 3 79 9v-135h-19c-25 0 -20 13 -32 33c-25 43 -62 49 -134 49h-192v-286h121c41 0 64 2 79 20c8 10 7 28 24 28h21v-159h-20c-20 0 -15 14 -24 31
c-16 28 -38 36 -83 36h-118v-304h224c80 0 126 19 150 68c15 30 12 55 28 55h28v-167h-583z" />
    <glyph glyph-name="F" unicode="F" horiz-adv-x="587" 
d="M201 385h108c41 0 64 3 79 21c8 10 7 28 24 28h22v-160h-21c-20 0 -15 15 -24 32c-16 28 -37 35 -82 35h-106v-224c0 -50 12 -59 42 -73c10 -5 17 -8 17 -22v-22h-212v22c0 14 7 17 17 22c30 14 41 23 41 73v489c0 49 -11 58 -41 72c-10 5 -17 9 -17 23v21h459
c22 0 50 3 81 9v-143h-19c-25 0 -20 15 -32 37c-25 46 -61 53 -134 53h-202v-293z" />
    <glyph glyph-name="G" unicode="G" horiz-adv-x="769" 
d="M708 130c0 -36 2 -51 24 -59c10 -4 26 -1 26 -9v-20c-108 -36 -222 -54 -336 -54c-109 0 -194 27 -261 82c-85 70 -131 173 -131 296c0 110 38 205 109 275c62 61 144 93 240 93c49 0 94 -8 135 -26c39 -17 63 -31 78 -31c14 0 24 10 31 10h15v-145h-17
c-15 0 -20 15 -33 36c-44 70 -118 109 -209 109c-139 0 -240 -118 -240 -313c0 -217 111 -338 308 -338c123 0 170 38 170 138c0 35 -7 59 -26 76c-11 10 -29 9 -29 22v25h151c-4 -50 -5 -80 -5 -89v-78z" />
    <glyph glyph-name="H" unicode="H" horiz-adv-x="822" 
d="M201 117c0 -50 12 -59 42 -73c10 -5 17 -8 17 -22v-22h-212v22c0 14 7 17 17 22c30 14 41 23 41 73v489c0 49 -11 58 -41 72c-10 5 -17 9 -17 23v21h212v-21c0 -14 -7 -18 -17 -23c-30 -14 -42 -23 -42 -72v-212h419v212c0 49 -11 58 -41 72c-10 5 -17 9 -17 23v21h212
v-21c0 -14 -7 -18 -17 -23c-30 -14 -42 -23 -42 -72v-489c0 -50 12 -59 42 -73c10 -5 17 -8 17 -22v-22h-212v22c0 14 7 17 17 22c30 14 41 23 41 73v230h-419v-230z" />
    <glyph glyph-name="I" unicode="I" horiz-adv-x="308" 
d="M201 117c0 -50 12 -59 42 -73c10 -5 17 -8 17 -22v-22h-212v22c0 14 7 17 17 22c30 14 41 23 41 73v489c0 49 -11 58 -41 72c-10 5 -17 9 -17 23v21h212v-21c0 -14 -7 -18 -17 -23c-30 -14 -42 -23 -42 -72v-489z" />
    <glyph glyph-name="J" unicode="J" horiz-adv-x="307" 
d="M205 172c0 -223 -62 -332 -205 -332c-56 0 -89 31 -89 72c0 31 22 53 52 53c20 0 35 -12 38 -24c9 -33 10 -48 34 -48c49 0 75 81 75 243v470c0 49 -12 58 -42 72c-10 5 -17 9 -17 23v21h212v-21c0 -14 -6 -18 -16 -23c-30 -14 -42 -23 -42 -72v-434z" />
    <glyph glyph-name="K" unicode="K" horiz-adv-x="737" 
d="M201 397l297 237c11 9 16 19 16 27c0 24 -37 16 -37 39v22h232v-19c0 -18 -8 -20 -26 -23c-54 -10 -98 -36 -148 -75l-257 -203l368 -291c68 -54 113 -71 113 -83v-28h-268v19c0 14 2 16 14 22c13 7 25 12 25 30c0 12 -7 22 -21 33l-308 246v-233c0 -50 12 -59 42 -73
c10 -5 17 -8 17 -22v-22h-212v22c0 14 7 17 17 22c30 14 41 23 41 73v489c0 49 -11 58 -41 72c-10 5 -17 9 -17 23v21h212v-21c0 -14 -7 -18 -17 -23c-30 -14 -42 -23 -42 -72v-209z" />
    <glyph glyph-name="L" unicode="L" horiz-adv-x="667" 
d="M106 606c0 49 -11 58 -41 72c-10 5 -17 9 -17 23v21h212v-21c0 -14 -7 -18 -17 -23c-30 -14 -42 -23 -42 -72v-562h224c80 0 126 19 150 68c15 30 12 55 28 55h28v-167h-583v22c0 14 7 17 17 22c30 14 41 23 41 73v489z" />
    <glyph glyph-name="M" unicode="M" horiz-adv-x="906" 
d="M148 117c0 -51 13 -59 47 -73c12 -5 19 -9 19 -22v-22h-178v22c0 14 7 17 19 22c34 14 47 23 47 73v489c0 49 -12 58 -42 72c-10 5 -17 9 -17 23v21h178l227 -587l232 587h178v-21c0 -14 -7 -18 -17 -23c-30 -14 -41 -23 -41 -72v-489c0 -50 11 -59 41 -73
c10 -5 17 -8 17 -22v-22h-208v22c0 14 7 17 17 22c30 14 41 23 41 73v552l-261 -669h-41l-258 669v-552z" />
    <glyph glyph-name="N" unicode="N" horiz-adv-x="769" 
d="M148 611v-494c0 -51 13 -59 47 -73c12 -5 19 -9 19 -22v-22h-178v22c0 14 7 17 19 22c34 14 47 23 47 73v489c0 37 -8 54 -42 72c-9 5 -17 8 -17 23v21h146l433 -542v426c0 50 -13 58 -47 72c-12 5 -19 9 -19 23v21h178v-21c0 -14 -6 -18 -18 -23
c-34 -14 -47 -22 -47 -72v-606h-29z" />
    <glyph glyph-name="O" unicode="O" horiz-adv-x="808" 
d="M30 361c0 113 43 212 119 280c68 62 153 93 255 93s187 -31 255 -93c76 -68 119 -167 119 -280s-43 -211 -119 -280c-68 -62 -153 -93 -255 -93s-187 31 -255 93c-76 69 -119 167 -119 280zM404 692c-165 0 -266 -120 -266 -331s100 -331 266 -331s266 120 266 331
s-101 331 -266 331z" />
    <glyph glyph-name="P" unicode="P" horiz-adv-x="653" 
d="M258 722c120 0 200 -6 240 -22c91 -36 134 -92 134 -179c0 -68 -37 -128 -103 -162c-42 -22 -107 -29 -196 -29h-132v-213c0 -50 12 -59 42 -73c10 -5 17 -8 17 -22v-22h-212v22c0 14 7 17 17 22c30 14 41 23 41 73v489c0 49 -11 58 -41 72c-10 5 -17 9 -17 23v21h210z
M201 374h115c144 0 206 43 206 162c0 56 -18 94 -59 120c-34 21 -84 22 -154 22h-108v-304z" />
    <glyph glyph-name="Q" unicode="Q" horiz-adv-x="808" 
d="M404 692c-165 0 -266 -120 -266 -331s100 -331 266 -331s266 120 266 331s-101 331 -266 331zM449 -9c124 -35 204 -86 258 -86c20 0 38 9 57 29l24 -23c-39 -56 -92 -85 -152 -85c-38 0 -71 9 -98 26c-47 30 -98 75 -167 112c-54 29 -119 45 -176 81
c-104 66 -165 181 -165 316c0 113 43 211 119 280c68 62 153 93 255 93s187 -31 255 -93c76 -68 119 -167 119 -280c0 -200 -130 -350 -329 -370z" />
    <glyph glyph-name="R" unicode="R" horiz-adv-x="733" 
d="M201 117c0 -50 12 -59 42 -73c10 -5 17 -8 17 -22v-22h-212v22c0 14 7 17 17 22c30 14 41 23 41 73v489c0 49 -11 58 -41 72c-10 5 -17 9 -17 23v21h277c209 0 306 -40 306 -186c0 -93 -52 -150 -154 -167l179 -268c25 -38 42 -45 70 -55c17 -6 25 -7 25 -21v-25h-150
l-151 234c-32 50 -57 80 -75 92c-24 15 -52 18 -88 18h-86v-227zM201 387h91c157 0 230 39 230 153c0 55 -23 96 -63 119c-30 17 -81 19 -153 19h-105v-291z" />
    <glyph glyph-name="S" unicode="S" horiz-adv-x="590" 
d="M46 199l16 2h2c12 0 12 -13 21 -33c47 -94 114 -138 216 -138c105 0 171 61 171 151c0 33 -10 61 -29 85c-36 46 -104 62 -196 92c-115 38 -170 85 -170 181c0 108 85 195 200 195c104 0 152 -49 170 -49c8 0 13 5 17 5h15v-163l-12 -2c-3 -1 -5 -1 -7 -1
c-16 0 -10 19 -26 57c-32 75 -80 111 -155 111c-76 0 -124 -46 -124 -113c0 -85 72 -101 203 -143c128 -41 187 -100 187 -215c0 -142 -91 -233 -234 -233c-105 0 -167 27 -190 27c-30 0 -42 -26 -56 -26h-2l-17 4v206z" />
    <glyph glyph-name="T" unicode="T" horiz-adv-x="715" 
d="M202 678c-55 0 -91 -3 -126 -38c-24 -24 -19 -43 -44 -43h-13v135c23 -8 49 -10 78 -10h522c29 0 55 2 78 10v-135h-14c-25 0 -19 19 -43 43c-34 34 -72 38 -127 38h-108v-561c0 -51 17 -60 54 -73c13 -5 21 -9 21 -22v-22h-245v22c0 13 9 17 22 22c37 13 53 22 53 73
v561h-108z" />
    <glyph glyph-name="U" unicode="U" horiz-adv-x="812" 
d="M668 606c0 50 -13 58 -47 72c-12 5 -19 9 -19 23v21h178v-21c0 -14 -7 -18 -19 -23c-33 -14 -47 -21 -47 -72v-269c0 -104 -7 -180 -46 -234c-60 -82 -146 -115 -273 -115c-102 0 -178 25 -226 73c-62 62 -68 139 -68 249v296c0 49 -12 58 -42 72c-10 5 -17 9 -17 23v21
h212v-21c0 -14 -7 -18 -17 -23c-30 -14 -41 -23 -41 -72v-276c0 -96 7 -163 41 -206c37 -47 100 -72 186 -72c182 0 245 83 245 280v274z" />
    <glyph glyph-name="V" unicode="V" horiz-adv-x="738" 
d="M346 -6l-277 604c-18 39 -29 60 -70 80c-10 5 -17 9 -17 23v21h221v-21c0 -29 -43 -19 -43 -54c0 -7 3 -25 12 -45l220 -482l226 463c15 31 21 53 21 61c0 21 -13 27 -30 34c-11 5 -17 10 -17 23v21h169v-21c0 -15 -8 -18 -17 -23c-40 -21 -54 -51 -74 -91l-292 -593h-32
z" />
    <glyph glyph-name="W" unicode="W" horiz-adv-x="940" 
d="M371 598c-12 30 -12 57 -59 80c-10 5 -17 9 -17 23v21h392v-21c0 -13 -6 -18 -17 -23c-47 -20 -52 -40 -74 -91l-67 -152l111 -300l182 448c12 30 19 51 19 62c0 22 -13 26 -29 33c-11 5 -17 10 -17 23v21h170v-21c0 -15 -8 -18 -17 -23c-33 -17 -56 -46 -74 -91
l-240 -593h-32l-125 324l-145 -324h-32l-238 604c-18 45 -36 64 -69 80c-10 5 -17 9 -17 23v21h216v-21c0 -29 -44 -19 -44 -54c0 -7 4 -22 13 -45l183 -475l112 249zM459 622l48 -132l53 130c5 12 8 22 8 32c0 25 -18 35 -58 35c-37 0 -56 -12 -56 -38c0 -9 2 -19 5 -27z
" />
    <glyph glyph-name="X" unicode="X" horiz-adv-x="773" 
d="M547 0v19c0 25 33 19 33 41c0 14 -10 29 -27 49l-182 217l-193 -208c-22 -24 -34 -40 -34 -54c0 -16 10 -19 30 -25c9 -3 9 -9 9 -19v-20h-194v16c0 25 9 23 39 37c26 12 61 37 96 74l220 233l-163 200c-27 33 -51 64 -86 88c-26 17 -49 23 -67 30c-11 4 -17 11 -17 23
v21h259v-19c0 -25 -33 -17 -33 -43c0 -11 8 -26 26 -47l150 -179l157 170c22 24 35 40 35 54c0 16 -11 19 -31 25c-9 3 -9 9 -9 19v20h195v-15c0 -25 -9 -23 -40 -38c-26 -12 -60 -37 -95 -74l-184 -196l220 -264c31 -37 57 -69 103 -89c16 -7 26 -12 26 -20v-26h-243z" />
    <glyph glyph-name="Y" unicode="Y" horiz-adv-x="700" 
d="M116 580c-23 30 -41 54 -58 70c-16 15 -35 21 -52 28c-11 5 -17 10 -17 23v21h232v-19c0 -25 -33 -17 -33 -43c0 -13 10 -27 26 -47l169 -221l168 211c21 26 32 42 32 55c0 16 -10 19 -30 25c-9 3 -9 9 -9 19v20h177v-15c0 -25 -9 -23 -37 -39c-21 -11 -49 -36 -79 -73
l-209 -258v-220c0 -51 16 -60 53 -73c13 -5 22 -9 22 -22v-22h-245v22c0 13 8 17 21 22c37 13 54 22 54 73v220z" />
    <glyph glyph-name="Z" unicode="Z" horiz-adv-x="748" 
d="M153 51h420c53 0 83 14 110 48c6 8 7 18 21 18h18v-117h-696l-14 23l533 648h-299c-54 0 -86 -6 -108 -34c-11 -14 -9 -30 -24 -30h-21v124c31 -6 58 -9 80 -9h499l9 -24z" />
    <glyph glyph-name="bracketleft" unicode="[" horiz-adv-x="370" 
d="M214 -86h140v-37h-221v845h221v-37h-140v-771z" />
    <glyph glyph-name="backslash" unicode="\" horiz-adv-x="278" 
d="M322 -93h-54l-284 827h54z" />
    <glyph glyph-name="bracketright" unicode="]" horiz-adv-x="370" 
d="M156 685h-140v37h221v-846h-221v37h140v772z" />
    <glyph glyph-name="asciicircum" unicode="^" horiz-adv-x="1000" 
d="M452 714h95l250 -276h-48l-250 205l-251 -205h-47z" />
    <glyph glyph-name="underscore" unicode="_" 
d="M0 -166h500v-70h-500v70z" />
    <glyph glyph-name="quoteleft" unicode="&#x2018;" horiz-adv-x="252" 
d="M108 597c9 4 18 6 27 6c33 0 56 -22 56 -53c0 -36 -24 -60 -57 -60c-46 0 -76 33 -76 85c0 56 32 106 98 159l26 -27c-44 -37 -69 -71 -74 -110z" />
    <glyph glyph-name="a" unicode="a" horiz-adv-x="425" 
d="M276 60c-33 -47 -79 -72 -131 -72c-67 0 -113 45 -113 111c0 92 77 144 229 150c0 79 -22 118 -69 118c-34 0 -45 -11 -59 -41c-10 -22 -19 -34 -41 -34c-18 0 -31 15 -31 34c0 47 50 79 139 79c105 0 144 -60 147 -188l2 -81c1 -63 5 -92 38 -92c7 0 13 2 22 7l13 -29
c-26 -23 -51 -34 -79 -34c-36 0 -57 23 -67 72zM264 213c-99 -2 -153 -44 -153 -110c0 -41 25 -68 61 -68c55 0 93 48 93 131v9z" />
    <glyph glyph-name="b" unicode="b" horiz-adv-x="470" 
d="M139 65c20 -20 53 -32 88 -32c77 0 122 57 122 168c0 106 -41 163 -117 163c-33 0 -63 -13 -93 -39v-260zM56 -12v628c0 35 -2 55 -15 61c-14 7 -27 6 -27 25v18l125 2v-355c30 23 70 36 110 36c113 0 193 -79 193 -197c0 -127 -88 -215 -197 -215c-53 0 -93 23 -121 23
c-14 0 -36 -10 -68 -26z" />
    <glyph glyph-name="c" unicode="c" horiz-adv-x="377" 
d="M375 61c-49 -48 -104 -73 -161 -73c-106 0 -188 85 -188 204c0 123 89 213 198 213c77 0 125 -38 125 -80c0 -22 -15 -36 -37 -36c-24 0 -31 10 -40 34c-11 30 -23 44 -53 44c-55 0 -103 -62 -103 -155c0 -103 59 -171 133 -171c35 0 71 15 104 46z" />
    <glyph glyph-name="d" unicode="d" horiz-adv-x="492" 
d="M331 47c-37 -39 -79 -57 -129 -57c-102 0 -174 79 -174 206s72 206 174 206c50 0 92 -18 129 -57v271c0 35 -2 55 -15 61c-14 7 -27 6 -27 25v18l125 2v-620c0 -35 2 -54 15 -60s27 -7 27 -26v-17l-123 -8zM331 106v181c-27 47 -62 71 -104 71c-60 0 -106 -58 -106 -162
s44 -161 109 -161c38 0 74 24 101 71z" />
    <glyph glyph-name="e" unicode="e" horiz-adv-x="394" 
d="M119 228v-18c0 -114 37 -171 112 -171c45 0 84 20 117 61l23 -20c-37 -60 -93 -92 -159 -92c-110 0 -184 82 -184 206c0 126 78 211 178 211c96 0 159 -63 159 -163v-14h-246zM123 266h154v3c0 64 -28 99 -77 99c-43 0 -72 -35 -77 -102z" />
    <glyph glyph-name="f" unicode="f" horiz-adv-x="252" 
d="M161 103c0 -35 2 -54 18 -60s33 -6 33 -25v-18h-176v18c0 19 14 19 27 25s15 25 15 60v253h-55v20c0 11 7 14 21 17c20 4 30 14 32 37c5 51 -3 117 27 189c28 66 79 103 141 103c46 0 74 -24 74 -57c0 -24 -13 -38 -36 -38c-18 0 -24 8 -34 21c-13 18 -22 31 -37 31
c-33 0 -50 -48 -50 -143v-142h106v-38h-106v-253z" />
    <glyph glyph-name="g" unicode="g" horiz-adv-x="432" 
d="M158 135l-49 -70c50 14 97 22 143 22c113 0 175 -48 175 -121c0 -75 -71 -128 -190 -128c-103 0 -161 38 -161 87c0 24 17 41 42 41c21 0 34 -13 34 -32c0 -11 -9 -19 -9 -26c0 -20 31 -33 92 -33c84 0 135 36 135 80c0 41 -48 67 -139 67c-113 0 -171 -39 -190 -39
c-10 0 -16 6 -16 16c0 8 4 17 13 30l82 121c-52 21 -77 59 -77 111c0 83 67 144 166 144c53 0 97 -17 133 -52c12 34 28 48 55 48c21 0 40 -17 40 -37c0 -22 -14 -34 -34 -34c-15 0 -23 11 -27 11s-9 -5 -15 -16c11 -22 17 -43 17 -64c0 -76 -64 -134 -161 -134
c-19 0 -38 3 -59 8zM210 164c52 0 83 37 83 102s-32 102 -83 102c-52 0 -82 -36 -82 -102c0 -65 30 -102 82 -102z" />
    <glyph glyph-name="h" unicode="h" horiz-adv-x="470" 
d="M73 616c0 35 -2 55 -15 61c-14 7 -27 6 -27 25v18l125 2v-374c36 37 74 55 119 55c85 0 122 -51 122 -154v-146c0 -35 1 -54 14 -60s28 -6 28 -25v-18h-167v18c0 19 14 19 27 25s15 25 15 60v188c0 41 -22 63 -60 63c-54 0 -98 -42 -98 -103v-148c0 -35 2 -54 15 -60
s27 -6 27 -25v-18h-167v18c0 19 14 19 27 25s15 25 15 60v513z" />
    <glyph glyph-name="i" unicode="i" horiz-adv-x="235" 
d="M69 642c0 26 21 49 48 49s49 -22 49 -49c0 -28 -23 -49 -49 -49s-48 23 -48 49zM161 103c0 -35 1 -54 14 -60s28 -6 28 -25v-18h-167v18c0 19 14 19 27 25s15 25 15 60v187c0 35 -2 54 -15 60c-14 7 -27 7 -27 26v18l125 2v-293z" />
    <glyph glyph-name="j" unicode="j" horiz-adv-x="218" 
d="M65 642c0 26 22 49 49 49s49 -22 49 -49c0 -28 -23 -49 -49 -49s-49 23 -49 49zM73 290c0 36 -3 54 -26 61c-26 7 -44 2 -44 25v18l154 2v-324c0 -153 -57 -234 -136 -234c-39 0 -61 20 -61 47c0 24 16 39 37 39c28 0 40 -31 51 -31c19 0 25 24 25 72v325z" />
    <glyph glyph-name="k" unicode="k" horiz-adv-x="422" 
d="M156 231l106 99c8 8 12 16 12 20c0 16 -36 9 -36 26v18h161v-18c0 -29 -37 -14 -91 -62l-76 -68l149 -176c34 -40 54 -29 54 -52v-18h-191v22c0 14 38 6 38 29c0 6 -3 15 -8 21l-100 117l-18 -17v-69c0 -35 2 -54 15 -60s27 -6 27 -25v-18h-167v18c0 19 14 19 27 25
s15 25 15 60v513c0 35 -2 55 -15 61c-14 7 -27 6 -27 25v18l125 2v-491z" />
    <glyph glyph-name="l" unicode="l" horiz-adv-x="229" 
d="M156 103c0 -35 2 -54 15 -60s27 -6 27 -25v-18h-167v18c0 19 14 19 27 25s15 25 15 60v513c0 35 -2 55 -15 61c-14 7 -27 6 -27 25v18l125 2v-619z" />
    <glyph glyph-name="m" unicode="m" horiz-adv-x="692" 
d="M161 103c0 -35 1 -54 14 -60s28 -6 28 -25v-18h-167v18c0 19 14 19 27 25s15 25 15 60v187c0 35 -2 54 -15 60c-14 7 -27 7 -27 26v18l123 2l2 -48c36 37 72 55 114 55c46 0 84 -24 103 -66c42 44 80 66 126 66c76 0 115 -52 115 -154v-146c0 -35 2 -54 15 -60
s27 -6 27 -25v-18h-167v18c0 19 14 19 27 25s15 25 15 60v167c0 56 -15 84 -57 84c-44 0 -89 -44 -89 -103v-148c0 -35 2 -54 15 -60s27 -6 27 -25v-18h-167v18c0 19 14 19 27 25s15 25 15 60v167c0 56 -15 84 -57 84c-44 0 -89 -44 -89 -103v-148z" />
    <glyph glyph-name="n" unicode="n" horiz-adv-x="475" 
d="M161 103c0 -35 1 -54 14 -60s28 -6 28 -25v-18h-167v18c0 19 14 19 27 25s15 25 15 60v187c0 35 -2 54 -15 60c-14 7 -27 7 -27 26v18l123 2l2 -48c36 37 73 55 118 55c85 0 123 -51 123 -154v-146c0 -35 1 -54 14 -60s27 -6 27 -25v-18h-166v18c0 19 14 19 27 25
s14 25 14 60v188c0 41 -21 63 -59 63c-54 0 -98 -42 -98 -103v-148z" />
    <glyph glyph-name="o" unicode="o" horiz-adv-x="444" 
d="M222 405c115 0 195 -85 195 -208s-80 -209 -195 -209s-194 87 -194 209s79 208 194 208zM222 368c-71 0 -102 -56 -102 -171s31 -172 102 -172c72 0 102 57 102 172s-30 171 -102 171z" />
    <glyph glyph-name="p" unicode="p" horiz-adv-x="492" 
d="M161 106c26 -46 62 -71 100 -71c65 0 110 58 110 162c0 103 -46 161 -106 161c-42 0 -77 -24 -104 -71v-181zM161 -59c0 -35 2 -54 16 -60c15 -6 30 -6 30 -25v-18h-171v18c0 19 13 18 27 25c13 6 15 25 15 60v349c0 35 -2 54 -15 60c-14 7 -27 7 -27 26v18l123 2l2 -50
c37 39 78 57 128 57c102 0 175 -79 175 -206s-73 -206 -175 -206c-50 0 -91 18 -128 57v-107z" />
    <glyph glyph-name="q" unicode="q" horiz-adv-x="470" 
d="M331 106v217c-28 29 -59 42 -96 42c-70 0 -115 -61 -115 -170c0 -102 45 -160 110 -160c38 0 74 24 101 71zM331 48c-37 -39 -79 -57 -129 -57c-102 0 -174 79 -174 206c0 122 81 206 192 206c39 0 77 -11 118 -33l76 36v-568h-129v18c0 19 15 18 30 25c14 6 16 25 16 60
v107z" />
    <glyph glyph-name="r" unicode="r" horiz-adv-x="312" 
d="M141 269c31 92 67 136 121 136c39 0 63 -22 63 -53c0 -25 -16 -44 -39 -44c-32 0 -44 34 -66 34c-21 0 -59 -67 -59 -191v-48c0 -35 2 -54 17 -60s31 -6 31 -25v-18h-173v18c0 19 14 19 27 25s15 25 15 60v187c0 35 -2 54 -15 60c-14 7 -27 7 -27 26v18l105 2v-127z" />
    <glyph glyph-name="s" unicode="s" horiz-adv-x="333" 
d="M301 120c0 -79 -57 -132 -144 -132c-78 0 -128 37 -128 85c0 28 17 47 38 47c27 0 44 -16 44 -40c0 -9 -3 -19 -3 -27c0 -19 20 -30 58 -30c48 0 77 28 77 64c0 44 -33 55 -97 84c-72 33 -112 57 -112 117c0 69 51 117 132 117c66 0 107 -30 107 -70
c0 -23 -15 -37 -40 -37c-20 0 -34 12 -34 32c0 14 7 22 7 24c0 11 -15 18 -43 18c-39 0 -63 -20 -63 -52c0 -42 36 -48 98 -76c69 -31 103 -60 103 -124z" />
    <glyph glyph-name="t" unicode="t" horiz-adv-x="258" 
d="M154 519v-125h89v-38h-89v-236c0 -54 13 -78 48 -78c13 0 29 5 47 14l12 -27c-37 -28 -71 -41 -98 -41c-73 0 -92 39 -92 128v240h-41v20c0 16 12 14 22 18c15 6 19 19 19 42v83h83z" />
    <glyph glyph-name="u" unicode="u" horiz-adv-x="472" 
d="M314 290c0 35 -2 54 -15 60c-14 7 -27 7 -27 26v18l125 2v-294c0 -35 1 -54 14 -60s28 -7 28 -26v-16l-123 -9l-2 55c-35 -37 -74 -55 -119 -55c-85 0 -122 50 -122 153v146c0 35 -2 54 -15 60c-14 7 -27 7 -27 26v18l125 2v-293c0 -41 22 -63 60 -63c54 0 98 43 98 103
v147z" />
    <glyph glyph-name="v" unicode="v" horiz-adv-x="380" 
d="M173 -9l-111 290c-15 40 -23 62 -49 73c-10 4 -18 6 -18 21v18h175v-16c0 -29 -33 -11 -33 -41c0 -6 1 -16 4 -24l72 -198l76 198c3 7 5 17 5 24c0 30 -34 11 -34 41v16h133v-18c0 -14 -8 -17 -18 -21c-23 -9 -34 -26 -46 -55l-124 -308h-32z" />
    <glyph glyph-name="w" unicode="w" horiz-adv-x="615" 
d="M198 -9h-25l-111 290c-15 40 -23 62 -49 73c-10 4 -18 6 -18 21v18h171v-16c0 -29 -34 -11 -34 -41c0 -6 1 -16 4 -24l73 -198l104 272l31 8l104 -275l76 193c3 6 5 16 5 24c0 30 -34 11 -34 41v16h133v-18c0 -14 -8 -17 -18 -21c-23 -9 -34 -26 -46 -55l-124 -308h-25
l-108 277z" />
    <glyph glyph-name="x" unicode="x" horiz-adv-x="411" 
d="M335 98c21 -28 34 -48 59 -58c10 -4 18 -8 18 -22v-18h-187v19c0 17 33 12 33 33c0 6 -4 18 -12 29l-55 73l-51 -73c-9 -12 -13 -24 -13 -30c0 -20 29 -16 29 -32v-19h-147v18c0 16 5 16 21 20c29 7 54 24 66 43l70 106l-82 109c-21 27 -34 48 -59 58c-10 4 -18 7 -18 22
v18h182v-19c0 -16 -28 -12 -28 -32c0 -6 3 -18 12 -30l45 -61l45 61c9 12 12 24 12 30c0 20 -28 16 -28 32v19h135v-18c0 -16 -4 -16 -18 -20c-24 -7 -41 -21 -57 -44l-65 -90z" />
    <glyph glyph-name="y" unicode="y" horiz-adv-x="405" 
d="M227 111l79 189c4 10 6 20 6 30c0 31 -37 18 -37 46v18h134v-18c0 -8 -4 -16 -7 -17c-26 -12 -37 -30 -52 -64l-135 -309c-43 -98 -96 -148 -152 -148c-42 0 -65 20 -65 50c0 25 15 41 38 41c32 0 31 -35 58 -35c24 0 51 38 86 112l-120 290c-12 30 -17 48 -42 58
c-10 4 -18 7 -18 22v18h176v-18c0 -26 -34 -17 -34 -48c0 -8 2 -18 8 -31z" />
    <glyph glyph-name="z" unicode="z" horiz-adv-x="396" 
d="M350 394l8 -15l-228 -342h154c56 0 69 48 83 48c11 0 13 -6 13 -18v-67h-354l-7 14l229 342h-126c-45 0 -53 -41 -69 -41c-11 0 -13 7 -13 23v56h310z" />
    <glyph glyph-name="braceleft" unicode="{" 
d="M414 740v-26c-95 -1 -115 -34 -115 -129v-69c0 -126 -16 -182 -135 -206c119 -24 135 -79 135 -206v-69c0 -95 19 -127 115 -128v-26h-5c-145 0 -187 42 -187 169v101c0 99 -26 135 -135 144v31c108 9 135 43 135 144v101c0 127 42 169 187 169h5z" />
    <glyph glyph-name="bar" unicode="|" 
d="M214 764h73v-1000h-73v1000z" />
    <glyph glyph-name="braceright" unicode="}" 
d="M86 740h5c145 0 188 -42 188 -169v-101c0 -101 27 -135 135 -144v-31c-108 -9 -135 -43 -135 -144v-101c0 -127 -43 -169 -188 -169h-5v26c95 1 116 33 116 128v69c0 127 15 182 134 206c-119 24 -134 80 -134 206v69c0 95 -21 128 -116 129v26z" />
    <glyph glyph-name="asciitilde" unicode="~" horiz-adv-x="833" 
d="M747 376v-76c-66 -46 -127 -69 -190 -69c-51 0 -95 18 -141 34c-47 16 -91 32 -141 32c-59 0 -117 -27 -188 -77v76c69 47 131 70 189 70c52 0 97 -14 142 -30c49 -17 93 -36 140 -36c62 0 120 27 189 76z" />
    <glyph glyph-name="exclamdown" unicode="&#xa1;" horiz-adv-x="310" 
d="M173 520l40 -520h-116l39 520h37zM215 622c0 -32 -27 -60 -60 -60c-34 0 -60 26 -60 60c0 33 28 60 60 60c31 0 60 -29 60 -60z" />
    <glyph glyph-name="cent" unicode="&#xa2;" horiz-adv-x="505" 
d="M421 71c-49 -48 -106 -73 -163 -73c-9 0 -19 1 -31 3l-39 -126h-40l41 136c-75 33 -117 101 -117 190c0 124 88 215 196 215c13 0 27 -3 43 -6l36 113h41l-39 -126c30 -16 45 -37 45 -62c0 -22 -15 -37 -37 -37c-15 0 -25 6 -33 19l-78 -256c15 -7 30 -10 46 -10
c36 0 72 16 106 47zM212 85l86 281c-12 8 -23 12 -35 12c-52 0 -101 -63 -101 -160c0 -55 15 -98 50 -133z" />
    <glyph glyph-name="sterling" unicode="&#xa3;" horiz-adv-x="505" 
d="M234 45c-34 -38 -72 -56 -114 -56c-54 0 -87 32 -87 83c0 55 41 91 107 91c26 0 53 -8 82 -22c2 9 4 18 4 26c0 35 -23 82 -59 150h-125v46h105c-24 48 -36 90 -36 126c0 94 78 165 194 165c84 0 135 -42 135 -92c0 -30 -19 -50 -48 -50c-27 0 -46 18 -46 43
c0 21 15 34 15 41c0 8 -22 19 -58 19c-58 0 -95 -39 -95 -96c0 -33 16 -87 52 -156h137v-46h-118c14 -31 21 -61 21 -94c0 -37 -8 -71 -25 -104c78 -46 115 -82 128 -82c7 0 12 4 12 8c0 8 -20 26 -20 55c0 28 18 46 46 46c29 0 47 -22 47 -58c0 -59 -44 -99 -114 -99
c-48 0 -89 21 -140 56zM198 72c-30 24 -55 36 -82 36c-26 0 -43 -17 -43 -42c0 -26 21 -46 51 -46c29 0 55 18 74 52z" />
    <glyph glyph-name="fraction" unicode="&#x2044;" horiz-adv-x="167" 
d="M-167 -12l446 723h54l-445 -723h-55z" />
    <glyph glyph-name="yen" unicode="&#xa5;" horiz-adv-x="556" 
d="M158 0v21c0 13 8 17 21 22c35 12 52 21 52 70v178h-207v37h207l-59 97h-148v37h126l-73 127c-19 32 -31 53 -58 67c-9 4 -17 7 -17 22v21h185v-18c0 -24 -33 -17 -33 -42c0 -7 7 -23 20 -46l129 -220l135 221c11 19 16 34 16 40c0 20 -10 20 -30 26c-8 3 -12 10 -12 20
v19h155v-15c0 -20 -3 -21 -21 -29c-29 -13 -44 -39 -66 -74l-76 -119h128v-37h-153l-61 -97h214v-37h-214v-178c0 -49 16 -58 51 -70c13 -5 21 -9 21 -22v-21h-232z" />
    <glyph glyph-name="florin" unicode="&#x192;" horiz-adv-x="505" 
d="M298 370l-35 -221c-34 -211 -88 -316 -186 -316c-47 0 -73 21 -73 52c0 25 15 41 39 41c15 0 25 -7 33 -20s10 -29 26 -29c29 0 45 58 62 176l47 317h-78l6 41h79c35 211 98 316 198 316c43 0 70 -21 70 -52c0 -24 -16 -39 -40 -39c-38 0 -39 47 -63 47s-42 -57 -61 -170
l-16 -102h81l-6 -41h-83z" />
    <glyph glyph-name="section" unicode="&#xa7;" 
d="M302 170c62 -51 94 -97 94 -145c0 -71 -64 -124 -169 -124c-82 0 -139 49 -139 101c0 37 23 61 56 61c29 0 50 -20 50 -48c0 -32 -31 -43 -31 -58c0 -17 25 -32 71 -32c53 0 88 32 88 74c0 37 -33 73 -91 123l-88 76c-57 49 -86 92 -86 141c0 68 55 121 140 123
c-60 52 -92 92 -92 143c0 72 60 129 153 129c83 0 137 -46 137 -104c0 -33 -24 -59 -57 -59c-28 0 -50 20 -50 44c0 29 32 44 32 60c0 15 -24 33 -63 33c-50 0 -79 -27 -79 -70c0 -45 36 -80 94 -130l86 -74c57 -48 85 -93 85 -141c0 -71 -54 -121 -141 -123zM124 374
c0 -42 26 -71 69 -112c45 -43 79 -67 112 -67c40 0 70 29 70 67c0 34 -23 65 -62 103c-49 48 -85 72 -118 72c-40 0 -71 -30 -71 -63z" />
    <glyph glyph-name="currency" unicode="&#xa4;" horiz-adv-x="505" 
d="M392 311l-11 -37h-193c6 -157 42 -229 134 -229c65 0 117 37 171 111l22 -22c-55 -95 -134 -146 -209 -146c-116 0 -204 104 -224 286h-65l11 37h52v23c0 24 1 49 4 74h-67l10 37h63c34 173 117 266 223 266c74 0 124 -40 137 -40c8 0 15 4 18 4h12v-164h-16
c-15 0 -14 8 -18 30c-14 75 -66 128 -129 128c-78 0 -116 -73 -128 -224h242l-11 -37h-233c-2 -26 -3 -42 -3 -48c0 -15 1 -32 2 -49h206z" />
    <glyph glyph-name="quotesingle" unicode="'" horiz-adv-x="172" 
d="M95 420h-17l-34 224c-1 7 -2 12 -2 18c0 33 16 52 44 52c27 0 44 -18 44 -50c0 -6 -1 -13 -2 -20z" />
    <glyph glyph-name="quotedblleft" unicode="&#x201c;" horiz-adv-x="444" 
d="M300 597c9 4 18 6 27 6c33 0 56 -22 56 -53c0 -36 -24 -60 -57 -60c-46 0 -76 33 -76 85c0 56 33 106 99 159l25 -27c-44 -37 -69 -71 -74 -110zM108 597c9 4 18 6 27 6c33 0 56 -22 56 -53c0 -36 -24 -60 -57 -60c-46 0 -76 33 -76 85c0 56 32 106 98 159l26 -27
c-44 -37 -69 -71 -74 -110z" />
    <glyph glyph-name="guillemotleft" unicode="&#xab;" horiz-adv-x="431" 
d="M28 197c123 95 167 167 183 167c6 0 9 -3 9 -9c0 -24 -32 -76 -95 -158c63 -82 95 -134 95 -158c0 -6 -3 -9 -9 -9c-16 0 -60 73 -183 167zM211 197c123 95 167 167 183 167c6 0 9 -3 9 -9c0 -24 -32 -76 -95 -158c63 -82 95 -134 95 -158c0 -6 -3 -9 -9 -9
c-16 0 -60 73 -183 167z" />
    <glyph glyph-name="guilsinglleft" unicode="&#x2039;" horiz-adv-x="248" 
d="M28 197c123 95 167 167 183 167c6 0 9 -3 9 -9c0 -24 -32 -76 -95 -158c63 -82 95 -134 95 -158c0 -6 -3 -9 -9 -9c-16 0 -60 73 -183 167z" />
    <glyph glyph-name="guilsinglright" unicode="&#x203a;" horiz-adv-x="248" 
d="M220 197c-123 -95 -168 -167 -184 -167c-6 0 -9 3 -9 11c0 21 31 73 95 156c-64 83 -95 136 -95 156c0 8 3 11 9 11c16 0 61 -73 184 -167z" />
    <glyph glyph-name="fi" unicode="&#xfb01;" horiz-adv-x="465" 
d="M161 103c0 -35 2 -54 18 -60s33 -6 33 -25v-18h-176v18c0 19 14 19 27 25s15 25 15 60v253h-55v20c0 11 7 14 21 17c20 4 30 14 32 36c6 62 6 109 16 137c35 102 103 156 181 156c56 0 92 -30 92 -64c0 -26 -16 -42 -40 -42c-15 0 -27 9 -32 20c-13 30 -17 46 -47 46
c-55 0 -85 -63 -85 -188v-100h230v-291c0 -35 2 -54 15 -60s27 -6 27 -25v-18h-167v18c0 19 14 19 27 25s15 25 15 60v187c0 61 -5 66 -62 66h-85v-253z" />
    <glyph glyph-name="fl" unicode="&#xfb02;" horiz-adv-x="464" 
d="M161 103c0 -35 2 -54 18 -60s33 -6 33 -25v-18h-176v18c0 19 14 19 27 25s15 25 15 60v253h-55v20c0 16 15 14 28 18c21 6 25 23 27 52c12 196 72 276 231 276h82v-619c0 -35 2 -54 15 -60s27 -6 27 -25v-18h-167v18c0 19 14 19 27 25s15 25 15 60v253h-147v-253z
M161 394h147v253c-6 -2 -12 -3 -16 -3c-24 0 -29 36 -56 36c-48 0 -75 -69 -75 -204v-82z" />
    <glyph glyph-name="endash" unicode="&#x2013;" 
d="M0 178v49h500v-49h-500z" />
    <glyph glyph-name="dagger" unicode="&#x2020;" 
d="M238 -115c0 147 -14 287 -47 423c32 49 47 108 48 179c-66 -3 -104 -41 -143 -41c-31 0 -52 19 -52 48c0 33 20 53 55 53c36 0 76 -39 140 -39v11c0 86 -42 135 -42 163c0 30 21 52 54 52c31 0 52 -22 52 -52c0 -28 -42 -76 -42 -160v-14c64 0 104 39 140 39
c34 0 55 -21 55 -51c0 -32 -20 -50 -54 -50c-36 0 -74 38 -141 41c0 -71 16 -130 48 -179c-31 -111 -46 -252 -46 -423h-25z" />
    <glyph glyph-name="daggerdbl" unicode="&#x2021;" 
d="M191 307c30 48 45 102 45 161v16h-6c-52 0 -92 -38 -134 -38c-31 0 -52 19 -52 48c0 33 20 53 55 53c33 0 72 -36 138 -38v10c0 92 -40 140 -40 163c0 31 21 52 54 52c31 0 52 -22 52 -52c0 -24 -40 -71 -40 -156c0 -5 1 -11 1 -17c63 3 104 38 137 38
c34 0 55 -21 55 -51c0 -32 -20 -50 -52 -50c-38 0 -77 36 -142 39c2 -75 17 -134 47 -179c-30 -47 -46 -102 -46 -157c0 -4 0 -9 1 -18h6c52 0 92 37 134 37c31 0 52 -18 52 -50c0 -30 -21 -50 -55 -50c-33 0 -72 35 -138 37v-10c0 -92 40 -140 40 -163
c0 -30 -21 -51 -54 -51c-32 0 -52 21 -52 51c0 24 40 71 40 156c0 5 -1 11 -1 17c-63 -3 -104 -37 -139 -37c-32 0 -53 20 -53 52c0 30 21 48 52 48c38 0 77 -36 142 -39c-2 76 -18 135 -47 178z" />
    <glyph glyph-name="periodcentered" unicode="&#xb7;" horiz-adv-x="252" 
d="M56 350c0 38 31 70 70 70s71 -31 71 -70s-33 -71 -71 -71s-70 33 -70 71z" />
    <glyph glyph-name="paragraph" unicode="&#xb6;" 
d="M468 722v-42h-59v-680h-54v680h-87v-680h-54v382c-113 5 -182 73 -182 170c0 100 74 170 192 170h244z" />
    <glyph glyph-name="bullet" unicode="&#x2022;" horiz-adv-x="590" 
d="M150 372c0 80 65 144 145 144c79 0 144 -64 144 -144c0 -79 -65 -145 -145 -145s-144 65 -144 145z" />
    <glyph glyph-name="quotesinglbase" unicode="&#x201a;" horiz-adv-x="252" 
d="M142 7c-10 -4 -19 -6 -27 -6c-32 0 -56 22 -56 53c0 36 24 60 57 60c47 0 76 -32 76 -88c0 -51 -33 -103 -99 -156l-25 27c44 37 69 70 74 110z" />
    <glyph glyph-name="quotedblbase" unicode="&#x201e;" horiz-adv-x="444" 
d="M334 7c-10 -4 -19 -6 -27 -6c-32 0 -56 22 -56 53c0 36 24 60 57 60c47 0 76 -32 76 -88c0 -51 -33 -103 -99 -156l-25 27c44 37 69 70 74 110zM141 7c-10 -4 -19 -6 -27 -6c-32 0 -56 22 -56 53c0 36 24 60 57 60c47 0 76 -32 76 -88c0 -51 -32 -103 -98 -156l-26 27
c44 37 69 70 74 110z" />
    <glyph glyph-name="quotedblright" unicode="&#x201d;" horiz-adv-x="444" 
d="M149 627c-10 -4 -19 -6 -27 -6c-32 0 -56 22 -56 53c0 36 24 60 57 60c47 0 76 -32 76 -88c0 -51 -33 -103 -99 -156l-25 27c44 37 69 70 74 110zM341 627c-10 -4 -19 -6 -27 -6c-32 0 -56 22 -56 53c0 36 24 60 57 60c47 0 76 -32 76 -88c0 -57 -40 -108 -99 -156
l-25 27c44 37 69 70 74 110z" />
    <glyph glyph-name="guillemotright" unicode="&#xbb;" horiz-adv-x="431" 
d="M403 197c-123 -95 -168 -167 -184 -167c-6 0 -9 3 -9 11c0 21 31 73 95 156c-64 83 -95 136 -95 156c0 8 3 11 9 11c16 0 61 -73 184 -167zM220 197c-123 -95 -168 -167 -184 -167c-6 0 -9 3 -9 11c0 21 31 73 95 156c-64 83 -95 136 -95 156c0 8 3 11 9 11
c16 0 61 -73 184 -167z" />
    <glyph glyph-name="ellipsis" unicode="&#x2026;" horiz-adv-x="1000" 
d="M107 54c0 32 27 60 60 60s60 -27 60 -60s-28 -60 -60 -60c-31 0 -60 28 -60 60zM440 54c0 32 27 60 60 60s60 -27 60 -60s-28 -60 -60 -60c-31 0 -60 28 -60 60zM774 54c0 32 27 60 60 60s60 -27 60 -60s-28 -60 -60 -60c-31 0 -60 28 -60 60z" />
    <glyph glyph-name="perthousand" unicode="&#x2030;" horiz-adv-x="1127" 
d="M27 485c0 122 76 214 153 214c84 0 153 -78 153 -193c0 -123 -77 -214 -153 -214c-83 0 -153 79 -153 193zM180 664c-51 0 -70 -61 -70 -184c0 -105 13 -154 70 -154c48 0 71 56 71 169c0 115 -11 169 -71 169zM437 192c0 122 77 214 154 214c84 0 153 -78 153 -193
c0 -123 -77 -214 -153 -214c-83 0 -154 79 -154 193zM591 372c-51 0 -71 -62 -71 -185c0 -105 14 -153 71 -153c48 0 70 56 70 169c0 115 -10 169 -70 169zM159 -12l400 723h53l-400 -723h-53zM794 192c0 122 77 214 154 214c84 0 153 -78 153 -193
c0 -123 -77 -214 -153 -214c-83 0 -154 79 -154 193zM947 372c-51 0 -70 -62 -70 -185c0 -105 13 -153 70 -153c48 0 71 56 71 169c0 115 -11 169 -71 169z" />
    <glyph glyph-name="questiondown" unicode="&#xbf;" horiz-adv-x="444" 
d="M302 509l28 -125l-16 -15c-26 17 -49 24 -66 24c-47 0 -71 -37 -71 -109c0 -74 19 -142 51 -193c22 -35 41 -52 55 -52s14 9 17 22c5 24 18 36 40 36c27 0 45 -21 45 -51c0 -33 -25 -52 -70 -52s-92 24 -136 71c-64 69 -97 147 -97 223c0 108 51 170 132 170
c19 0 41 -4 65 -11l-14 68zM345 616c0 -32 -26 -60 -59 -60c-34 0 -60 26 -60 60c0 33 28 60 60 60c31 0 59 -29 59 -60z" />
    <glyph glyph-name="grave" unicode="`" 
d="M195 605l141 -146h-33l-161 100c-20 13 -30 27 -30 41c0 20 15 34 35 34c17 0 30 -11 48 -29z" />
    <glyph glyph-name="acute" unicode="&#xb4;" 
d="M358 559l-161 -100h-33l141 146c18 18 31 29 48 29c20 0 35 -14 35 -34c0 -14 -10 -28 -30 -41z" />
    <glyph glyph-name="circumflex" unicode="&#x2c6;" 
d="M221 630h58l113 -171h-28l-114 103l-114 -103h-28z" />
    <glyph glyph-name="tilde" unicode="&#x2dc;" 
d="M364 604h26c-13 -67 -44 -99 -95 -99c-11 0 -23 1 -36 4l-53 14c-8 2 -18 3 -28 3c-22 0 -34 -14 -43 -44h-25c12 69 44 104 96 104c11 0 21 -2 31 -5l54 -14c11 -3 21 -4 27 -4c24 0 37 11 46 41z" />
    <glyph glyph-name="macron" unicode="&#xaf;" 
d="M124 566h252v-62h-252v62z" />
    <glyph glyph-name="breve" unicode="&#x2d8;" 
d="M107 611h25c11 -49 48 -69 118 -69s106 20 117 69h25c-13 -87 -62 -133 -142 -133s-130 46 -143 133z" />
    <glyph glyph-name="dotaccent" unicode="&#x2d9;" 
d="M250 587c28 0 51 -24 51 -52s-22 -51 -51 -51c-28 0 -51 22 -51 51c0 28 24 52 51 52z" />
    <glyph glyph-name="dieresis" unicode="&#xa8;" 
d="M164 584c26 0 49 -23 49 -49c0 -28 -21 -49 -49 -49s-48 21 -48 49c0 26 22 49 48 49zM336 584c26 0 48 -23 48 -49c0 -28 -20 -49 -48 -49s-49 21 -49 49c0 26 23 49 49 49z" />
    <glyph glyph-name="ring" unicode="&#x2da;" 
d="M250 685c66 0 118 -51 118 -117s-52 -118 -118 -118s-117 52 -117 118s51 117 117 117zM250 641c-40 0 -72 -33 -72 -74c0 -40 32 -72 72 -72c41 0 74 32 74 72c0 41 -33 74 -74 74z" />
    <glyph glyph-name="cedilla" unicode="&#xb8;" 
d="M225 0h31v-55c11 2 20 3 30 3c57 0 89 -31 89 -80c0 -52 -39 -86 -107 -86c-42 0 -90 13 -142 39l15 36c45 -25 83 -35 109 -35c41 0 60 14 60 45c0 27 -20 44 -56 44c-8 0 -18 -1 -29 -3v92z" />
    <glyph glyph-name="hungarumlaut" unicode="&#x2dd;" 
d="M284 565l-100 -106h-28l70 137c14 26 27 39 45 39s33 -15 33 -33c0 -10 -7 -23 -20 -37zM419 564l-116 -105h-29l88 141c15 24 30 35 50 35c16 0 29 -13 29 -29c0 -15 -8 -29 -22 -42z" />
    <glyph glyph-name="ogonek" unicode="&#x2db;" 
d="M305 15c-59 -46 -89 -89 -89 -130c0 -36 21 -58 50 -58c25 0 45 12 58 36l14 -9c-24 -48 -61 -73 -103 -73c-46 0 -78 30 -78 70c0 58 42 111 124 164h24z" />
    <glyph glyph-name="caron" unicode="&#x2c7;" 
d="M108 630h28l114 -103l114 103h28l-113 -171h-58z" />
    <glyph glyph-name="emdash" unicode="&#x2014;" horiz-adv-x="1000" 
d="M0 178v49h1000v-49h-1000z" />
    <glyph glyph-name="AE" unicode="&#xc6;" horiz-adv-x="998" 
d="M379 0v22c0 14 7 17 17 22c30 14 41 23 41 73v231h-220l-91 -212c-9 -20 -12 -42 -12 -56c0 -30 16 -29 35 -40c5 -3 9 -10 9 -18v-22h-182v22c0 14 7 17 17 22c51 25 71 68 101 137l184 426c6 15 11 27 11 38c0 31 -48 28 -48 56v21h587c22 0 50 3 81 9v-135h-19
c-25 0 -20 13 -32 33c-25 43 -62 49 -134 49h-192v-286h121c41 0 64 2 79 20c8 10 7 28 24 28h21v-159h-20c-20 0 -15 14 -24 31c-16 28 -38 36 -83 36h-118v-304h224c80 0 127 19 150 68c15 30 12 55 28 55h28v-167h-583zM233 392h205v203c0 57 -8 84 -44 84
c-30 0 -50 -27 -73 -81z" />
    <glyph glyph-name="ordfeminine" unicode="&#xaa;" horiz-adv-x="319" 
d="M207 489c-25 -33 -59 -50 -98 -50c-50 0 -85 31 -85 77c0 65 58 101 172 105c0 56 -17 83 -52 83c-25 0 -34 -8 -44 -29c-8 -15 -14 -24 -31 -24c-13 0 -23 11 -23 24c0 33 37 55 104 55c79 0 108 -42 110 -131l2 -57c1 -44 4 -64 28 -64c6 0 10 1 17 5l10 -21
c-20 -16 -39 -23 -60 -23c-27 0 -42 16 -50 50zM198 596c-74 -1 -115 -31 -115 -77c0 -29 19 -48 46 -48c41 0 70 34 70 92v6z" />
    <glyph glyph-name="Lslash" unicode="&#x141;" horiz-adv-x="674" 
d="M113 298l-113 -70v51l113 71v256c0 49 -11 58 -41 72c-10 5 -17 9 -17 23v21h212v-21c0 -14 -7 -18 -17 -23c-30 -14 -42 -23 -42 -72v-207l145 90v-52l-145 -90v-303h223c80 0 128 19 151 68c15 30 12 55 28 55h28v-167h-583v22c0 14 7 17 17 22c30 14 41 23 41 73v181z
" />
    <glyph glyph-name="Oslash" unicode="&#xd8;" horiz-adv-x="808" 
d="M221 104l336 540c-40 35 -89 48 -153 48c-166 0 -266 -120 -266 -331c0 -108 24 -191 83 -257zM590 615l-337 -540c43 -32 91 -45 151 -45c166 0 266 120 266 331c0 113 -27 198 -80 254zM111 -67l73 119c-101 72 -154 180 -154 309c0 113 43 211 119 280
c68 62 153 93 255 93c68 0 127 -13 181 -41l49 78h51l-62 -101c100 -69 155 -179 155 -309c0 -113 -43 -212 -119 -280c-68 -62 -153 -93 -255 -93c-66 0 -126 14 -182 41l-59 -96h-52z" />
    <glyph glyph-name="OE" unicode="&#x152;" horiz-adv-x="1076" 
d="M907 722c22 0 49 3 80 9v-135h-19c-25 0 -20 13 -32 33c-25 43 -62 49 -134 49h-173v-286h102c41 0 64 2 79 20c8 10 7 28 24 28h22v-159h-21c-20 0 -15 14 -24 31c-16 28 -37 36 -82 36h-100v-304h205c80 0 127 19 150 68c15 30 12 55 28 55h28v-167h-556
c-109 0 -200 2 -280 46c-105 57 -174 179 -174 315s67 252 180 315c74 42 158 46 257 46h440zM534 156v426c0 74 -15 99 -117 99c-181 0 -279 -113 -279 -320c0 -203 100 -319 266 -319c54 0 93 14 111 33c17 18 19 37 19 58v23z" />
    <glyph glyph-name="ordmasculine" unicode="&#xba;" horiz-adv-x="333" 
d="M167 730c86 0 146 -59 146 -145s-60 -146 -146 -146c-87 0 -146 60 -146 146c0 85 59 145 146 145zM167 705c-54 0 -77 -40 -77 -120c0 -81 23 -121 77 -121s76 40 76 121c0 80 -22 120 -76 120z" />
    <glyph glyph-name="ae" unicode="&#xe6;" horiz-adv-x="620" 
d="M263 221c-104 -6 -160 -50 -160 -118c0 -42 25 -68 65 -68c69 0 95 46 95 140v46zM347 223v-17c0 -111 38 -167 112 -167c45 0 83 20 116 61l23 -20c-38 -62 -93 -92 -168 -92c-59 0 -110 28 -139 75c-39 -50 -87 -75 -147 -75c-75 0 -119 43 -119 112
c0 96 81 151 238 156c-1 70 -31 111 -78 111c-34 0 -45 -11 -59 -41c-10 -22 -19 -34 -41 -34c-18 0 -31 15 -31 34c0 47 50 79 139 79c53 0 94 -19 119 -55c29 36 72 55 122 55c97 0 160 -63 160 -166c0 -5 -1 -10 -1 -16h-246zM350 261h154v7c0 65 -28 100 -77 100
c-44 0 -74 -38 -77 -107z" />
    <glyph glyph-name="dotlessi" unicode="&#x131;" horiz-adv-x="235" 
d="M161 103c0 -35 1 -54 14 -60s28 -6 28 -25v-18h-167v18c0 19 14 19 27 25s15 25 15 60v187c0 35 -2 54 -15 60c-14 7 -27 7 -27 26v18l125 2v-293z" />
    <glyph glyph-name="lslash" unicode="&#x142;" horiz-adv-x="238" 
d="M161 412l77 51v-42l-77 -52v-266c0 -35 1 -54 14 -60s28 -6 28 -25v-18h-167v18c0 19 14 19 27 25s15 25 15 60v222l-78 -52v42l78 53v248c0 35 -2 55 -15 61c-14 7 -27 6 -27 25v18l125 2v-310z" />
    <glyph glyph-name="oslash" unicode="&#xf8;" horiz-adv-x="444" 
d="M136 82l154 255c-12 19 -37 31 -68 31c-69 0 -102 -55 -102 -167c0 -58 5 -97 16 -119zM153 53c19 -18 42 -28 69 -28c72 0 102 57 102 172c0 55 -4 91 -14 108zM48 -51l50 81c-47 46 -70 101 -70 167c0 122 79 208 194 208c37 0 69 -8 96 -24l35 56h39l-47 -75
c45 -36 72 -94 72 -165c0 -123 -80 -209 -195 -209c-34 0 -66 7 -96 22l-39 -61h-39z" />
    <glyph glyph-name="oe" unicode="&#x153;" horiz-adv-x="671" 
d="M215 25c67 0 95 57 95 172s-28 171 -95 171c-66 0 -95 -56 -95 -171s28 -172 95 -172zM397 228v-18c0 -114 37 -171 112 -171c45 0 84 20 117 61l22 -20c-37 -60 -92 -92 -158 -92c-61 0 -111 24 -141 65c-28 -41 -77 -65 -137 -65c-109 0 -184 86 -184 209
s75 208 184 208c69 0 116 -31 140 -66c33 43 79 66 132 66c97 0 159 -63 159 -163v-14h-246zM401 266h154v3c0 64 -28 99 -77 99c-43 0 -72 -35 -77 -102z" />
    <glyph glyph-name="germandbls" unicode="&#xdf;" horiz-adv-x="521" 
d="M158 0h-125v18c0 19 14 19 27 25s14 25 14 60v396c0 148 66 223 190 223c106 0 177 -68 177 -174c0 -91 -55 -154 -157 -174c136 -13 210 -85 210 -197c0 -116 -71 -188 -173 -188c-76 0 -128 44 -128 103c0 35 22 59 51 59c26 0 45 -20 45 -45c0 -29 -26 -41 -26 -52
c0 -13 15 -22 42 -22c57 0 95 52 95 144c0 117 -51 175 -153 175h-15c-20 0 -28 4 -28 20s5 23 20 23h25c64 0 109 56 109 152c0 88 -38 139 -97 139c-73 0 -103 -62 -103 -190v-495z" />
    <glyph glyph-name="Aacute" unicode="&#xc1;" horiz-adv-x="769" 
d="M178 213l-44 -97c-7 -15 -9 -28 -9 -38c0 -35 44 -32 44 -55v-23h-178v20c0 22 12 18 31 29c30 17 53 56 82 116l237 485l-20 34c-3 4 -4 8 -4 12c0 13 14 14 31 21c20 9 30 25 44 25c6 0 8 -4 12 -13l277 -581c23 -48 39 -83 76 -104c13 -7 19 -9 19 -23v-21h-223v23
c0 23 44 20 44 55c0 10 -3 23 -10 38l-42 97h-367zM199 259h323l-157 342zM493 888l-161 -100h-33l141 146c18 18 31 29 48 29c20 0 35 -14 35 -34c0 -14 -10 -28 -30 -41z" />
    <glyph glyph-name="Acircumflex" unicode="&#xc2;" horiz-adv-x="769" 
d="M178 213l-44 -97c-7 -15 -9 -28 -9 -38c0 -35 44 -32 44 -55v-23h-178v20c0 22 12 18 31 29c30 17 53 56 82 116l237 485l-20 34c-3 4 -4 8 -4 12c0 13 14 14 31 21c20 9 30 25 44 25c6 0 8 -4 12 -13l277 -581c23 -48 39 -83 76 -104c13 -7 19 -9 19 -23v-21h-223v23
c0 23 44 20 44 55c0 10 -3 23 -10 38l-42 97h-367zM199 259h323l-157 342zM356 959h58l113 -171h-28l-114 103l-114 -103h-28z" />
    <glyph glyph-name="Adieresis" unicode="&#xc4;" horiz-adv-x="769" 
d="M178 213l-44 -97c-7 -15 -9 -28 -9 -38c0 -35 44 -32 44 -55v-23h-178v20c0 22 12 18 31 29c30 17 53 56 82 116l237 485l-20 34c-3 4 -4 8 -4 12c0 13 14 14 31 21c20 9 30 25 44 25c6 0 8 -4 12 -13l277 -581c23 -48 39 -83 76 -104c13 -7 19 -9 19 -23v-21h-223v23
c0 23 44 20 44 55c0 10 -3 23 -10 38l-42 97h-367zM199 259h323l-157 342zM299 913c26 0 49 -23 49 -49c0 -28 -21 -49 -49 -49s-48 21 -48 49c0 26 22 49 48 49zM471 913c26 0 48 -23 48 -49c0 -28 -20 -49 -48 -49s-49 21 -49 49c0 26 23 49 49 49z" />
    <glyph glyph-name="Agrave" unicode="&#xc0;" horiz-adv-x="769" 
d="M178 213l-44 -97c-7 -15 -9 -28 -9 -38c0 -35 44 -32 44 -55v-23h-178v20c0 22 12 18 31 29c30 17 53 56 82 116l237 485l-20 34c-3 4 -4 8 -4 12c0 13 14 14 31 21c20 9 30 25 44 25c6 0 8 -4 12 -13l277 -581c23 -48 39 -83 76 -104c13 -7 19 -9 19 -23v-21h-223v23
c0 23 44 20 44 55c0 10 -3 23 -10 38l-42 97h-367zM199 259h323l-157 342zM330 934l141 -146h-33l-161 100c-20 13 -30 27 -30 41c0 20 15 34 35 34c17 0 30 -11 48 -29z" />
    <glyph glyph-name="Aring" unicode="&#xc5;" horiz-adv-x="769" 
d="M178 213l-44 -97c-7 -15 -9 -28 -9 -38c0 -35 44 -32 44 -55v-23h-178v20c0 22 12 18 31 29c30 17 53 56 82 116l237 485l-6 10c-3 4 -4 8 -4 12c0 13 13 14 30 21c20 9 30 24 44 24c6 0 9 -4 13 -13l263 -556c23 -48 40 -83 76 -104c13 -7 19 -9 19 -23v-21h-223v23
c0 23 44 20 44 55c0 10 -3 23 -10 38l-42 97h-367zM199 259h323l-157 342zM386 963c61 0 111 -49 111 -110s-49 -111 -111 -111s-110 49 -110 111s49 110 110 110zM386 921c-38 0 -68 -31 -68 -69c0 -37 31 -68 68 -68c38 0 69 31 69 68c0 38 -31 69 -69 69z" />
    <glyph glyph-name="Atilde" unicode="&#xc3;" horiz-adv-x="769" 
d="M178 213l-44 -97c-7 -15 -9 -28 -9 -38c0 -35 44 -32 44 -55v-23h-178v20c0 22 12 18 31 29c30 17 53 56 82 116l237 485l-20 34c-3 4 -4 8 -4 12c0 13 14 14 31 21c20 9 30 25 44 25c6 0 8 -4 12 -13l277 -581c23 -48 39 -83 76 -104c13 -7 19 -9 19 -23v-21h-223v23
c0 23 44 20 44 55c0 10 -3 23 -10 38l-42 97h-367zM199 259h323l-157 342zM499 933h26c-13 -67 -44 -99 -95 -99c-11 0 -23 1 -36 4l-53 14c-8 2 -18 3 -28 3c-22 0 -34 -14 -43 -44h-25c12 69 44 104 96 104c11 0 21 -2 31 -5l54 -14c11 -3 21 -4 27 -4c24 0 37 11 46 41z
" />
    <glyph glyph-name="Ccedilla" unicode="&#xc7;" horiz-adv-x="682" 
d="M661 134c-71 -94 -173 -146 -285 -146c-89 0 -167 29 -229 84c-75 67 -117 164 -117 278s37 209 107 280c67 68 154 104 250 104c104 0 164 -40 181 -40c11 0 19 4 26 4h17v-164h-13c-24 0 -19 11 -26 30c-30 85 -92 131 -182 131c-153 0 -251 -121 -251 -334
c0 -201 100 -316 261 -316c87 0 168 39 234 116zM316 0h31v-55c11 2 20 3 30 3c57 0 89 -31 89 -80c0 -52 -39 -86 -107 -86c-42 0 -90 13 -142 39l15 36c45 -25 83 -35 109 -35c41 0 60 14 60 45c0 27 -20 44 -56 44c-8 0 -18 -1 -29 -3v92z" />
    <glyph glyph-name="Eacute" unicode="&#xc9;" horiz-adv-x="667" 
d="M48 0v22c0 14 7 17 17 22c30 14 41 23 41 73v489c0 49 -11 58 -41 72c-10 5 -17 9 -17 23v21h451c24 0 50 3 79 9v-135h-19c-25 0 -20 13 -32 33c-25 43 -62 49 -134 49h-192v-286h121c41 0 64 2 79 20c8 10 7 28 24 28h21v-159h-20c-20 0 -15 14 -24 31
c-16 28 -38 36 -83 36h-118v-304h224c80 0 126 19 150 68c15 30 12 55 28 55h28v-167h-583zM442 888l-161 -100h-33l141 146c18 18 31 29 48 29c20 0 35 -14 35 -34c0 -14 -10 -28 -30 -41z" />
    <glyph glyph-name="Ecircumflex" unicode="&#xca;" horiz-adv-x="667" 
d="M48 0v22c0 14 7 17 17 22c30 14 41 23 41 73v489c0 49 -11 58 -41 72c-10 5 -17 9 -17 23v21h451c24 0 50 3 79 9v-135h-19c-25 0 -20 13 -32 33c-25 43 -62 49 -134 49h-192v-286h121c41 0 64 2 79 20c8 10 7 28 24 28h21v-159h-20c-20 0 -15 14 -24 31
c-16 28 -38 36 -83 36h-118v-304h224c80 0 126 19 150 68c15 30 12 55 28 55h28v-167h-583zM305 959h58l113 -171h-28l-114 103l-114 -103h-28z" />
    <glyph glyph-name="Edieresis" unicode="&#xcb;" horiz-adv-x="667" 
d="M48 0v22c0 14 7 17 17 22c30 14 41 23 41 73v489c0 49 -11 58 -41 72c-10 5 -17 9 -17 23v21h451c24 0 50 3 79 9v-135h-19c-25 0 -20 13 -32 33c-25 43 -62 49 -134 49h-192v-286h121c41 0 64 2 79 20c8 10 7 28 24 28h21v-159h-20c-20 0 -15 14 -24 31
c-16 28 -38 36 -83 36h-118v-304h224c80 0 126 19 150 68c15 30 12 55 28 55h28v-167h-583zM248 913c26 0 49 -23 49 -49c0 -28 -21 -49 -49 -49s-48 21 -48 49c0 26 22 49 48 49zM420 913c26 0 48 -23 48 -49c0 -28 -20 -49 -48 -49s-49 21 -49 49c0 26 23 49 49 49z" />
    <glyph glyph-name="Egrave" unicode="&#xc8;" horiz-adv-x="667" 
d="M48 0v22c0 14 7 17 17 22c30 14 41 23 41 73v489c0 49 -11 58 -41 72c-10 5 -17 9 -17 23v21h451c24 0 50 3 79 9v-135h-19c-25 0 -20 13 -32 33c-25 43 -62 49 -134 49h-192v-286h121c41 0 64 2 79 20c8 10 7 28 24 28h21v-159h-20c-20 0 -15 14 -24 31
c-16 28 -38 36 -83 36h-118v-304h224c80 0 126 19 150 68c15 30 12 55 28 55h28v-167h-583zM279 934l141 -146h-33l-161 100c-20 13 -30 27 -30 41c0 20 15 34 35 34c17 0 30 -11 48 -29z" />
    <glyph glyph-name="Eth" unicode="&#xd0;" horiz-adv-x="760" 
d="M208 49c34 -3 62 -5 84 -5c211 0 332 117 332 317c0 201 -121 317 -332 317c-23 0 -52 -2 -84 -5v-279h178v-47h-178v-298zM55 0v22c0 14 7 17 17 22c30 14 41 23 41 73v230h-113v47h113v212c0 49 -11 58 -41 72c-10 5 -17 9 -17 23v21h249c275 0 429 -135 429 -354
s-163 -368 -417 -368h-261z" />
    <glyph glyph-name="Euro" unicode="&#x20ac;" horiz-adv-x="505" 
d="M392 311l-11 -37h-193c6 -157 42 -229 134 -229c65 0 117 37 171 111l22 -22c-55 -95 -134 -146 -209 -146c-116 0 -204 104 -224 286h-65l11 37h52v23c0 24 1 49 4 74h-67l10 37h63c34 173 117 266 223 266c74 0 124 -40 137 -40c8 0 15 4 18 4h12v-164h-16
c-15 0 -14 8 -18 30c-14 75 -66 128 -129 128c-78 0 -116 -73 -128 -224h242l-11 -37h-233c-2 -26 -3 -42 -3 -48c0 -15 1 -32 2 -49h206z" />
    <glyph glyph-name="Iacute" unicode="&#xcd;" horiz-adv-x="308" 
d="M201 117c0 -50 12 -59 42 -73c10 -5 17 -8 17 -22v-22h-212v22c0 14 7 17 17 22c30 14 41 23 41 73v489c0 49 -11 58 -41 72c-10 5 -17 9 -17 23v21h212v-21c0 -14 -7 -18 -17 -23c-30 -14 -42 -23 -42 -72v-489zM262 888l-161 -100h-33l141 146c18 18 31 29 48 29
c20 0 35 -14 35 -34c0 -14 -10 -28 -30 -41z" />
    <glyph glyph-name="Icircumflex" unicode="&#xce;" horiz-adv-x="308" 
d="M201 117c0 -50 12 -59 42 -73c10 -5 17 -8 17 -22v-22h-212v22c0 14 7 17 17 22c30 14 41 23 41 73v489c0 49 -11 58 -41 72c-10 5 -17 9 -17 23v21h212v-21c0 -14 -7 -18 -17 -23c-30 -14 -42 -23 -42 -72v-489zM125 959h58l113 -171h-28l-114 103l-114 -103h-28z" />
    <glyph glyph-name="Idieresis" unicode="&#xcf;" horiz-adv-x="308" 
d="M201 117c0 -50 12 -59 42 -73c10 -5 17 -8 17 -22v-22h-212v22c0 14 7 17 17 22c30 14 41 23 41 73v489c0 49 -11 58 -41 72c-10 5 -17 9 -17 23v21h212v-21c0 -14 -7 -18 -17 -23c-30 -14 -42 -23 -42 -72v-489zM68 913c26 0 49 -23 49 -49c0 -28 -21 -49 -49 -49
s-48 21 -48 49c0 26 22 49 48 49zM240 913c26 0 48 -23 48 -49c0 -28 -20 -49 -48 -49s-49 21 -49 49c0 26 23 49 49 49z" />
    <glyph glyph-name="Igrave" unicode="&#xcc;" horiz-adv-x="308" 
d="M201 117c0 -50 12 -59 42 -73c10 -5 17 -8 17 -22v-22h-212v22c0 14 7 17 17 22c30 14 41 23 41 73v489c0 49 -11 58 -41 72c-10 5 -17 9 -17 23v21h212v-21c0 -14 -7 -18 -17 -23c-30 -14 -42 -23 -42 -72v-489zM99 934l141 -146h-33l-161 100c-20 13 -30 27 -30 41
c0 20 15 34 35 34c17 0 30 -11 48 -29z" />
    <glyph glyph-name="Ntilde" unicode="&#xd1;" horiz-adv-x="769" 
d="M148 611v-494c0 -51 13 -59 47 -73c12 -5 19 -9 19 -22v-22h-178v22c0 14 7 17 19 22c34 14 47 23 47 73v489c0 37 -8 54 -42 72c-9 5 -17 8 -17 23v21h146l433 -542v426c0 50 -13 58 -47 72c-12 5 -19 9 -19 23v21h178v-21c0 -14 -6 -18 -18 -23
c-34 -14 -47 -22 -47 -72v-606h-29zM499 933h26c-13 -67 -44 -99 -95 -99c-11 0 -23 1 -36 4l-53 14c-8 2 -18 3 -28 3c-22 0 -34 -14 -43 -44h-25c12 69 44 104 96 104c11 0 21 -2 31 -5l54 -14c11 -3 21 -4 27 -4c24 0 37 11 46 41z" />
    <glyph glyph-name="Oacute" unicode="&#xd3;" horiz-adv-x="808" 
d="M30 361c0 113 43 212 119 280c68 62 153 93 255 93s187 -31 255 -93c76 -68 119 -167 119 -280s-43 -211 -119 -280c-68 -62 -153 -93 -255 -93s-187 31 -255 93c-76 69 -119 167 -119 280zM404 692c-165 0 -266 -120 -266 -331s100 -331 266 -331s266 120 266 331
s-101 331 -266 331zM512 888l-161 -100h-33l141 146c18 18 31 29 48 29c20 0 35 -14 35 -34c0 -14 -10 -28 -30 -41z" />
    <glyph glyph-name="Ocircumflex" unicode="&#xd4;" horiz-adv-x="808" 
d="M30 361c0 113 43 212 119 280c68 62 153 93 255 93s187 -31 255 -93c76 -68 119 -167 119 -280s-43 -211 -119 -280c-68 -62 -153 -93 -255 -93s-187 31 -255 93c-76 69 -119 167 -119 280zM404 692c-165 0 -266 -120 -266 -331s100 -331 266 -331s266 120 266 331
s-101 331 -266 331zM375 959h58l113 -171h-28l-114 103l-114 -103h-28z" />
    <glyph glyph-name="Odieresis" unicode="&#xd6;" horiz-adv-x="808" 
d="M30 361c0 113 43 212 119 280c68 62 153 93 255 93s187 -31 255 -93c76 -68 119 -167 119 -280s-43 -211 -119 -280c-68 -62 -153 -93 -255 -93s-187 31 -255 93c-76 69 -119 167 -119 280zM404 692c-165 0 -266 -120 -266 -331s100 -331 266 -331s266 120 266 331
s-101 331 -266 331zM318 913c26 0 49 -23 49 -49c0 -28 -21 -49 -49 -49s-48 21 -48 49c0 26 22 49 48 49zM490 913c26 0 48 -23 48 -49c0 -28 -20 -49 -48 -49s-49 21 -49 49c0 26 23 49 49 49z" />
    <glyph glyph-name="Ograve" unicode="&#xd2;" horiz-adv-x="808" 
d="M30 361c0 113 43 212 119 280c68 62 153 93 255 93s187 -31 255 -93c76 -68 119 -167 119 -280s-43 -211 -119 -280c-68 -62 -153 -93 -255 -93s-187 31 -255 93c-76 69 -119 167 -119 280zM404 692c-165 0 -266 -120 -266 -331s100 -331 266 -331s266 120 266 331
s-101 331 -266 331zM349 934l141 -146h-33l-161 100c-20 13 -30 27 -30 41c0 20 15 34 35 34c17 0 30 -11 48 -29z" />
    <glyph glyph-name="Otilde" unicode="&#xd5;" horiz-adv-x="808" 
d="M30 361c0 113 43 212 119 280c68 62 153 93 255 93s187 -31 255 -93c76 -68 119 -167 119 -280s-43 -211 -119 -280c-68 -62 -153 -93 -255 -93s-187 31 -255 93c-76 69 -119 167 -119 280zM404 692c-165 0 -266 -120 -266 -331s100 -331 266 -331s266 120 266 331
s-101 331 -266 331zM518 933h26c-13 -67 -44 -99 -95 -99c-11 0 -23 1 -36 4l-53 14c-8 2 -18 3 -28 3c-22 0 -34 -14 -43 -44h-25c12 69 44 104 96 104c11 0 21 -2 31 -5l54 -14c11 -3 21 -4 27 -4c24 0 37 11 46 41z" />
    <glyph glyph-name="Scaron" unicode="&#x160;" horiz-adv-x="590" 
d="M46 199l16 2h2c12 0 12 -13 21 -33c47 -94 114 -138 216 -138c105 0 171 61 171 151c0 33 -10 61 -29 85c-36 46 -104 62 -196 92c-115 38 -170 85 -170 181c0 108 85 195 200 195c104 0 152 -49 170 -49c8 0 13 5 17 5h15v-163l-12 -2c-3 -1 -5 -1 -7 -1
c-16 0 -10 19 -26 57c-32 75 -80 111 -155 111c-76 0 -124 -46 -124 -113c0 -85 72 -101 203 -143c128 -41 187 -100 187 -215c0 -142 -91 -233 -234 -233c-105 0 -167 27 -190 27c-30 0 -42 -26 -56 -26h-2l-17 4v206zM153 959h28l114 -103l114 103h28l-113 -171h-58z" />
    <glyph glyph-name="Thorn" unicode="&#xde;" horiz-adv-x="653" 
d="M106 606c0 49 -11 58 -41 72c-10 5 -17 9 -17 23v21h212v-21c0 -14 -7 -18 -17 -23c-30 -14 -42 -23 -42 -72v-43h57c120 0 200 -6 240 -22c91 -36 134 -92 134 -179c0 -68 -37 -128 -103 -162c-42 -22 -107 -29 -196 -29h-132v-54c0 -50 12 -59 42 -73
c10 -5 17 -8 17 -22v-22h-212v22c0 14 7 17 17 22c30 14 41 23 41 73v489zM201 215h115c144 0 206 43 206 162c0 56 -18 94 -59 120c-34 21 -84 22 -154 22h-108v-304z" />
    <glyph glyph-name="Uacute" unicode="&#xda;" horiz-adv-x="812" 
d="M668 606c0 50 -13 58 -47 72c-12 5 -19 9 -19 23v21h178v-21c0 -14 -7 -18 -19 -23c-33 -14 -47 -21 -47 -72v-269c0 -104 -7 -180 -46 -234c-60 -82 -146 -115 -273 -115c-102 0 -178 25 -226 73c-62 62 -68 139 -68 249v296c0 49 -12 58 -42 72c-10 5 -17 9 -17 23v21
h212v-21c0 -14 -7 -18 -17 -23c-30 -14 -41 -23 -41 -72v-276c0 -96 7 -163 41 -206c37 -47 100 -72 186 -72c182 0 245 83 245 280v274zM537 888l-161 -100h-33l141 146c18 18 31 29 48 29c20 0 35 -14 35 -34c0 -14 -10 -28 -30 -41z" />
    <glyph glyph-name="Ucircumflex" unicode="&#xdb;" horiz-adv-x="812" 
d="M668 606c0 50 -13 58 -47 72c-12 5 -19 9 -19 23v21h178v-21c0 -14 -7 -18 -19 -23c-33 -14 -47 -21 -47 -72v-269c0 -104 -7 -180 -46 -234c-60 -82 -146 -115 -273 -115c-102 0 -178 25 -226 73c-62 62 -68 139 -68 249v296c0 49 -12 58 -42 72c-10 5 -17 9 -17 23v21
h212v-21c0 -14 -7 -18 -17 -23c-30 -14 -41 -23 -41 -72v-276c0 -96 7 -163 41 -206c37 -47 100 -72 186 -72c182 0 245 83 245 280v274zM400 959h58l113 -171h-28l-114 103l-114 -103h-28z" />
    <glyph glyph-name="Udieresis" unicode="&#xdc;" horiz-adv-x="812" 
d="M668 606c0 50 -13 58 -47 72c-12 5 -19 9 -19 23v21h178v-21c0 -14 -7 -18 -19 -23c-33 -14 -47 -21 -47 -72v-269c0 -104 -7 -180 -46 -234c-60 -82 -146 -115 -273 -115c-102 0 -178 25 -226 73c-62 62 -68 139 -68 249v296c0 49 -12 58 -42 72c-10 5 -17 9 -17 23v21
h212v-21c0 -14 -7 -18 -17 -23c-30 -14 -41 -23 -41 -72v-276c0 -96 7 -163 41 -206c37 -47 100 -72 186 -72c182 0 245 83 245 280v274zM343 913c26 0 49 -23 49 -49c0 -28 -21 -49 -49 -49s-48 21 -48 49c0 26 22 49 48 49zM515 913c26 0 48 -23 48 -49
c0 -28 -20 -49 -48 -49s-49 21 -49 49c0 26 23 49 49 49z" />
    <glyph glyph-name="Ugrave" unicode="&#xd9;" horiz-adv-x="812" 
d="M668 606c0 50 -13 58 -47 72c-12 5 -19 9 -19 23v21h178v-21c0 -14 -7 -18 -19 -23c-33 -14 -47 -21 -47 -72v-269c0 -104 -7 -180 -46 -234c-60 -82 -146 -115 -273 -115c-102 0 -178 25 -226 73c-62 62 -68 139 -68 249v296c0 49 -12 58 -42 72c-10 5 -17 9 -17 23v21
h212v-21c0 -14 -7 -18 -17 -23c-30 -14 -41 -23 -41 -72v-276c0 -96 7 -163 41 -206c37 -47 100 -72 186 -72c182 0 245 83 245 280v274zM374 934l141 -146h-33l-161 100c-20 13 -30 27 -30 41c0 20 15 34 35 34c17 0 30 -11 48 -29z" />
    <glyph glyph-name="Yacute" unicode="&#xdd;" horiz-adv-x="700" 
d="M116 580c-23 30 -41 54 -58 70c-16 15 -35 21 -52 28c-11 5 -17 10 -17 23v21h232v-19c0 -25 -33 -17 -33 -43c0 -13 10 -27 26 -47l169 -221l168 211c21 26 32 42 32 55c0 16 -10 19 -30 25c-9 3 -9 9 -9 19v20h177v-15c0 -25 -9 -23 -37 -39c-21 -11 -49 -36 -79 -73
l-209 -258v-220c0 -51 16 -60 53 -73c13 -5 22 -9 22 -22v-22h-245v22c0 13 8 17 21 22c37 13 54 22 54 73v220zM458 888l-161 -100h-33l141 146c18 18 31 29 48 29c20 0 35 -14 35 -34c0 -14 -10 -28 -30 -41z" />
    <glyph glyph-name="Ydieresis" unicode="&#x178;" horiz-adv-x="700" 
d="M116 580c-23 30 -41 54 -58 70c-16 15 -35 21 -52 28c-11 5 -17 10 -17 23v21h232v-19c0 -25 -33 -17 -33 -43c0 -13 10 -27 26 -47l169 -221l168 211c21 26 32 42 32 55c0 16 -10 19 -30 25c-9 3 -9 9 -9 19v20h177v-15c0 -25 -9 -23 -37 -39c-21 -11 -49 -36 -79 -73
l-209 -258v-220c0 -51 16 -60 53 -73c13 -5 22 -9 22 -22v-22h-245v22c0 13 8 17 21 22c37 13 54 22 54 73v220zM264 913c26 0 49 -23 49 -49c0 -28 -21 -49 -49 -49s-48 21 -48 49c0 26 22 49 48 49zM436 913c26 0 48 -23 48 -49c0 -28 -20 -49 -48 -49s-49 21 -49 49
c0 26 23 49 49 49z" />
    <glyph glyph-name="Zcaron" unicode="&#x17d;" horiz-adv-x="748" 
d="M153 51h420c53 0 83 14 110 48c6 8 7 18 21 18h18v-117h-696l-14 23l533 648h-299c-54 0 -86 -6 -108 -34c-11 -14 -9 -30 -24 -30h-21v124c31 -6 58 -9 80 -9h499l9 -24zM232 959h28l114 -103l114 103h28l-113 -171h-58z" />
    <glyph glyph-name="aacute" unicode="&#xe1;" horiz-adv-x="425" 
d="M276 60c-33 -47 -79 -72 -131 -72c-67 0 -113 45 -113 111c0 92 77 144 229 150c0 79 -22 118 -69 118c-34 0 -45 -11 -59 -41c-10 -22 -19 -34 -41 -34c-18 0 -31 15 -31 34c0 47 50 79 139 79c105 0 144 -60 147 -188l2 -81c1 -63 5 -92 38 -92c7 0 13 2 22 7l13 -29
c-26 -23 -51 -34 -79 -34c-36 0 -57 23 -67 72zM264 213c-99 -2 -153 -44 -153 -110c0 -41 25 -68 61 -68c55 0 93 48 93 131v9zM311 559l-161 -100h-33l141 146c18 18 31 29 48 29c20 0 35 -14 35 -34c0 -14 -10 -28 -30 -41z" />
    <glyph glyph-name="acircumflex" unicode="&#xe2;" horiz-adv-x="425" 
d="M276 60c-33 -47 -79 -72 -131 -72c-67 0 -113 45 -113 111c0 92 77 144 229 150c0 79 -22 118 -69 118c-34 0 -45 -11 -59 -41c-10 -22 -19 -34 -41 -34c-18 0 -31 15 -31 34c0 47 50 79 139 79c105 0 144 -60 147 -188l2 -81c1 -63 5 -92 38 -92c7 0 13 2 22 7l13 -29
c-26 -23 -51 -34 -79 -34c-36 0 -57 23 -67 72zM264 213c-99 -2 -153 -44 -153 -110c0 -41 25 -68 61 -68c55 0 93 48 93 131v9zM174 630h58l113 -171h-28l-114 103l-114 -103h-28z" />
    <glyph glyph-name="adieresis" unicode="&#xe4;" horiz-adv-x="425" 
d="M276 60c-33 -47 -79 -72 -131 -72c-67 0 -113 45 -113 111c0 92 77 144 229 150c0 79 -22 118 -69 118c-34 0 -45 -11 -59 -41c-10 -22 -19 -34 -41 -34c-18 0 -31 15 -31 34c0 47 50 79 139 79c105 0 144 -60 147 -188l2 -81c1 -63 5 -92 38 -92c7 0 13 2 22 7l13 -29
c-26 -23 -51 -34 -79 -34c-36 0 -57 23 -67 72zM264 213c-99 -2 -153 -44 -153 -110c0 -41 25 -68 61 -68c55 0 93 48 93 131v9zM117 584c26 0 49 -23 49 -49c0 -28 -21 -49 -49 -49s-48 21 -48 49c0 26 22 49 48 49zM289 584c26 0 48 -23 48 -49c0 -28 -20 -49 -48 -49
s-49 21 -49 49c0 26 23 49 49 49z" />
    <glyph glyph-name="agrave" unicode="&#xe0;" horiz-adv-x="425" 
d="M276 60c-33 -47 -79 -72 -131 -72c-67 0 -113 45 -113 111c0 92 77 144 229 150c0 79 -22 118 -69 118c-34 0 -45 -11 -59 -41c-10 -22 -19 -34 -41 -34c-18 0 -31 15 -31 34c0 47 50 79 139 79c105 0 144 -60 147 -188l2 -81c1 -63 5 -92 38 -92c7 0 13 2 22 7l13 -29
c-26 -23 -51 -34 -79 -34c-36 0 -57 23 -67 72zM264 213c-99 -2 -153 -44 -153 -110c0 -41 25 -68 61 -68c55 0 93 48 93 131v9zM148 605l141 -146h-33l-161 100c-20 13 -30 27 -30 41c0 20 15 34 35 34c17 0 30 -11 48 -29z" />
    <glyph glyph-name="aring" unicode="&#xe5;" horiz-adv-x="425" 
d="M276 60c-33 -47 -79 -72 -131 -72c-67 0 -113 45 -113 111c0 92 77 144 229 150c0 79 -22 118 -69 118c-34 0 -45 -11 -59 -41c-10 -22 -19 -34 -41 -34c-18 0 -31 15 -31 34c0 47 50 79 139 79c105 0 144 -60 147 -188l2 -81c1 -63 5 -92 38 -92c7 0 13 2 22 7l13 -29
c-26 -23 -51 -34 -79 -34c-36 0 -57 23 -67 72zM264 213c-99 -2 -153 -44 -153 -110c0 -41 25 -68 61 -68c55 0 93 48 93 131v9zM209 675c66 0 117 -52 117 -118s-51 -117 -117 -117s-118 51 -118 117s52 118 118 118zM209 630c-40 0 -73 -32 -73 -73c0 -40 33 -73 73 -73
c41 0 73 33 73 73c0 41 -32 73 -73 73z" />
    <glyph glyph-name="atilde" unicode="&#xe3;" horiz-adv-x="425" 
d="M276 60c-33 -47 -79 -72 -131 -72c-67 0 -113 45 -113 111c0 92 77 144 229 150c0 79 -22 118 -69 118c-34 0 -45 -11 -59 -41c-10 -22 -19 -34 -41 -34c-18 0 -31 15 -31 34c0 47 50 79 139 79c105 0 144 -60 147 -188l2 -81c1 -63 5 -92 38 -92c7 0 13 2 22 7l13 -29
c-26 -23 -51 -34 -79 -34c-36 0 -57 23 -67 72zM264 213c-99 -2 -153 -44 -153 -110c0 -41 25 -68 61 -68c55 0 93 48 93 131v9zM317 604h26c-13 -67 -44 -99 -95 -99c-11 0 -23 1 -36 4l-53 14c-8 2 -18 3 -28 3c-22 0 -34 -14 -43 -44h-25c12 69 44 104 96 104
c11 0 21 -2 31 -5l54 -14c11 -3 21 -4 27 -4c24 0 37 11 46 41z" />
    <glyph glyph-name="brokenbar" unicode="&#xa6;" 
d="M214 699h73v-370h-73v370zM214 199h73v-370h-73v370z" />
    <glyph glyph-name="ccedilla" unicode="&#xe7;" horiz-adv-x="377" 
d="M375 61c-49 -48 -104 -73 -161 -73c-106 0 -188 85 -188 204c0 123 89 213 198 213c77 0 125 -38 125 -80c0 -22 -15 -36 -37 -36c-24 0 -31 10 -40 34c-11 30 -23 44 -53 44c-55 0 -103 -62 -103 -155c0 -103 59 -171 133 -171c35 0 71 15 104 46zM164 0h31v-55
c11 2 20 3 30 3c57 0 89 -31 89 -80c0 -52 -39 -86 -107 -86c-42 0 -90 13 -142 39l15 36c45 -25 83 -35 109 -35c41 0 60 14 60 45c0 27 -20 44 -56 44c-8 0 -18 -1 -29 -3v92z" />
    <glyph glyph-name="copyright" unicode="&#xa9;" horiz-adv-x="822" 
d="M412 679c90 0 179 -37 244 -101c64 -64 102 -154 102 -247c0 -91 -36 -178 -102 -245c-65 -66 -151 -102 -245 -102c-93 0 -178 36 -245 102s-102 150 -102 245c0 92 36 178 102 245c65 66 153 103 246 103zM412 637c-80 0 -158 -33 -215 -91c-58 -59 -88 -134 -88 -215
c0 -83 31 -157 89 -215c59 -58 132 -89 213 -89c82 0 156 31 213 89c58 59 90 136 90 215c0 80 -33 161 -89 217s-135 89 -213 89zM548 536h18l1 -154h-21c-21 88 -68 133 -137 133c-77 0 -117 -61 -117 -181c0 -122 44 -186 127 -186c55 0 100 29 137 86l19 -13
c-39 -68 -96 -103 -169 -103c-113 0 -201 92 -201 209c0 121 89 211 200 211c62 0 95 -32 112 -32c18 0 27 9 31 30z" />
    <glyph glyph-name="degree" unicode="&#xb0;" horiz-adv-x="329" 
d="M165 711c77 0 140 -63 140 -141c0 -76 -61 -140 -141 -140c-79 0 -140 62 -140 140s64 141 141 141zM165 665c-52 0 -95 -41 -95 -94s42 -96 95 -96c54 0 94 44 94 96s-41 94 -94 94z" />
    <glyph glyph-name="divide" unicode="&#xf7;" horiz-adv-x="833" 
d="M417 540c33 0 61 -28 61 -62c0 -33 -27 -61 -61 -61s-61 27 -61 61s28 62 61 62zM124 332h585v-68h-585v68zM417 179c33 0 61 -27 61 -61c0 -33 -27 -61 -61 -61c-35 0 -61 27 -61 61s28 61 61 61z" />
    <glyph glyph-name="eacute" unicode="&#xe9;" horiz-adv-x="394" 
d="M119 228v-18c0 -114 37 -171 112 -171c45 0 84 20 117 61l23 -20c-37 -60 -93 -92 -159 -92c-110 0 -184 82 -184 206c0 126 78 211 178 211c96 0 159 -63 159 -163v-14h-246zM123 266h154v3c0 64 -28 99 -77 99c-43 0 -72 -35 -77 -102zM323 559l-161 -100h-33l141 146
c18 18 31 29 48 29c20 0 35 -14 35 -34c0 -14 -10 -28 -30 -41z" />
    <glyph glyph-name="ecircumflex" unicode="&#xea;" horiz-adv-x="394" 
d="M119 228v-18c0 -114 37 -171 112 -171c45 0 84 20 117 61l23 -20c-37 -60 -93 -92 -159 -92c-110 0 -184 82 -184 206c0 126 78 211 178 211c96 0 159 -63 159 -163v-14h-246zM123 266h154v3c0 64 -28 99 -77 99c-43 0 -72 -35 -77 -102zM186 630h58l113 -171h-28
l-114 103l-114 -103h-28z" />
    <glyph glyph-name="edieresis" unicode="&#xeb;" horiz-adv-x="394" 
d="M119 228v-18c0 -114 37 -171 112 -171c45 0 84 20 117 61l23 -20c-37 -60 -93 -92 -159 -92c-110 0 -184 82 -184 206c0 126 78 211 178 211c96 0 159 -63 159 -163v-14h-246zM123 266h154v3c0 64 -28 99 -77 99c-43 0 -72 -35 -77 -102zM129 584c26 0 49 -23 49 -49
c0 -28 -21 -49 -49 -49s-48 21 -48 49c0 26 22 49 48 49zM301 584c26 0 48 -23 48 -49c0 -28 -20 -49 -48 -49s-49 21 -49 49c0 26 23 49 49 49z" />
    <glyph glyph-name="egrave" unicode="&#xe8;" horiz-adv-x="394" 
d="M119 228v-18c0 -114 37 -171 112 -171c45 0 84 20 117 61l23 -20c-37 -60 -93 -92 -159 -92c-110 0 -184 82 -184 206c0 126 78 211 178 211c96 0 159 -63 159 -163v-14h-246zM123 266h154v3c0 64 -28 99 -77 99c-43 0 -72 -35 -77 -102zM160 605l141 -146h-33l-161 100
c-20 13 -30 27 -30 41c0 20 15 34 35 34c17 0 30 -11 48 -29z" />
    <glyph glyph-name="eth" unicode="&#xf0;" horiz-adv-x="444" 
d="M222 25c72 0 102 57 102 172s-30 171 -102 171c-71 0 -102 -56 -102 -171s31 -172 102 -172zM288 389c-16 52 -37 103 -65 152l-104 -49l-15 31l102 48c-24 43 -61 85 -106 130l19 21c52 -36 97 -78 137 -125l103 45l15 -32l-95 -44c92 -118 138 -230 138 -357
c0 -137 -78 -221 -195 -221c-115 0 -194 87 -194 209c0 121 82 208 184 208c28 0 52 -5 76 -16z" />
    <glyph glyph-name="iacute" unicode="&#xed;" horiz-adv-x="235" 
d="M161 103c0 -35 1 -54 14 -60s28 -6 28 -25v-18h-167v18c0 19 14 19 27 25s15 25 15 60v187c0 35 -2 54 -15 60c-14 7 -27 7 -27 26v18l125 2v-293zM226 559l-161 -100h-33l141 146c18 18 31 29 48 29c20 0 35 -14 35 -34c0 -14 -10 -28 -30 -41z" />
    <glyph glyph-name="icircumflex" unicode="&#xee;" horiz-adv-x="235" 
d="M161 103c0 -35 1 -54 14 -60s28 -6 28 -25v-18h-167v18c0 19 14 19 27 25s15 25 15 60v187c0 35 -2 54 -15 60c-14 7 -27 7 -27 26v18l125 2v-293zM89 630h58l113 -171h-28l-114 103l-114 -103h-28z" />
    <glyph glyph-name="idieresis" unicode="&#xef;" horiz-adv-x="235" 
d="M161 103c0 -35 1 -54 14 -60s28 -6 28 -25v-18h-167v18c0 19 14 19 27 25s15 25 15 60v187c0 35 -2 54 -15 60c-14 7 -27 7 -27 26v18l125 2v-293zM32 584c26 0 49 -23 49 -49c0 -28 -21 -49 -49 -49s-48 21 -48 49c0 26 22 49 48 49zM204 584c26 0 48 -23 48 -49
c0 -28 -20 -49 -48 -49s-49 21 -49 49c0 26 23 49 49 49z" />
    <glyph glyph-name="igrave" unicode="&#xec;" horiz-adv-x="235" 
d="M161 103c0 -35 1 -54 14 -60s28 -6 28 -25v-18h-167v18c0 19 14 19 27 25s15 25 15 60v187c0 35 -2 54 -15 60c-14 7 -27 7 -27 26v18l125 2v-293zM63 605l141 -146h-33l-161 100c-20 13 -30 27 -30 41c0 20 15 34 35 34c17 0 30 -11 48 -29z" />
    <glyph glyph-name="logicalnot" unicode="&#xac;" horiz-adv-x="833" 
d="M124 420h585v-245h-67v177h-518v68z" />
    <glyph glyph-name="minus" unicode="&#x2212;" horiz-adv-x="833" 
d="M124 333h585v-69h-585v69z" />
    <glyph glyph-name="mu" unicode="&#xb5;" horiz-adv-x="571" 
d="M81 95c-46 -198 -28 -300 -88 -300c-27 0 -43 16 -43 46c0 46 49 158 88 341l53 250h82l-49 -232c-7 -31 -9 -53 -9 -65c0 -46 28 -72 79 -72c65 0 99 36 115 111l55 258h84l-56 -260c-6 -28 -9 -49 -9 -62c0 -32 18 -49 50 -49c29 0 54 17 68 46c17 35 15 63 32 63
c6 0 11 -6 11 -14c0 -19 -8 -58 -24 -92c-25 -50 -59 -76 -105 -76c-52 0 -83 37 -83 102v6c-33 -73 -77 -108 -144 -108c-62 0 -99 37 -107 107z" />
    <glyph glyph-name="multiply" unicode="&#xd7;" horiz-adv-x="833" 
d="M191 575l229 -229l229 229l48 -48l-229 -229l229 -229l-48 -47l-229 228l-229 -228l-48 47l229 229l-229 229z" />
    <glyph glyph-name="ntilde" unicode="&#xf1;" horiz-adv-x="475" 
d="M161 103c0 -35 1 -54 14 -60s28 -6 28 -25v-18h-167v18c0 19 14 19 27 25s15 25 15 60v187c0 35 -2 54 -15 60c-14 7 -27 7 -27 26v18l123 2l2 -48c36 37 73 55 118 55c85 0 123 -51 123 -154v-146c0 -35 1 -54 14 -60s27 -6 27 -25v-18h-166v18c0 19 14 19 27 25
s14 25 14 60v188c0 41 -21 63 -59 63c-54 0 -98 -42 -98 -103v-148zM352 604h26c-13 -67 -44 -99 -95 -99c-11 0 -23 1 -36 4l-53 14c-8 2 -18 3 -28 3c-22 0 -34 -14 -43 -44h-25c12 69 44 104 96 104c11 0 21 -2 31 -5l54 -14c11 -3 21 -4 27 -4c24 0 37 11 46 41z" />
    <glyph glyph-name="oacute" unicode="&#xf3;" horiz-adv-x="444" 
d="M222 405c115 0 195 -85 195 -208s-80 -209 -195 -209s-194 87 -194 209s79 208 194 208zM222 368c-71 0 -102 -56 -102 -171s31 -172 102 -172c72 0 102 57 102 172s-30 171 -102 171zM330 559l-161 -100h-33l141 146c18 18 31 29 48 29c20 0 35 -14 35 -34
c0 -14 -10 -28 -30 -41z" />
    <glyph glyph-name="ocircumflex" unicode="&#xf4;" horiz-adv-x="444" 
d="M222 405c115 0 195 -85 195 -208s-80 -209 -195 -209s-194 87 -194 209s79 208 194 208zM222 368c-71 0 -102 -56 -102 -171s31 -172 102 -172c72 0 102 57 102 172s-30 171 -102 171zM193 630h58l113 -171h-28l-114 103l-114 -103h-28z" />
    <glyph glyph-name="odieresis" unicode="&#xf6;" horiz-adv-x="444" 
d="M222 405c115 0 195 -85 195 -208s-80 -209 -195 -209s-194 87 -194 209s79 208 194 208zM222 368c-71 0 -102 -56 -102 -171s31 -172 102 -172c72 0 102 57 102 172s-30 171 -102 171zM136 584c26 0 49 -23 49 -49c0 -28 -21 -49 -49 -49s-48 21 -48 49c0 26 22 49 48 49
zM308 584c26 0 48 -23 48 -49c0 -28 -20 -49 -48 -49s-49 21 -49 49c0 26 23 49 49 49z" />
    <glyph glyph-name="ograve" unicode="&#xf2;" horiz-adv-x="444" 
d="M222 405c115 0 195 -85 195 -208s-80 -209 -195 -209s-194 87 -194 209s79 208 194 208zM222 368c-71 0 -102 -56 -102 -171s31 -172 102 -172c72 0 102 57 102 172s-30 171 -102 171zM167 605l141 -146h-33l-161 100c-20 13 -30 27 -30 41c0 20 15 34 35 34
c17 0 30 -11 48 -29z" />
    <glyph glyph-name="onehalf" unicode="&#xbd;" horiz-adv-x="803" 
d="M137 307v344h-38v11c0 13 33 14 93 43v-398h-55zM151 -12l446 723h54l-445 -723h-55zM488 0v20c131 132 202 222 202 287c0 39 -25 63 -65 63c-34 0 -65 -18 -95 -56l-14 9c-3 1 -4 3 -4 6c0 4 5 10 15 20c33 33 72 49 119 49c66 0 109 -36 109 -91
c0 -67 -79 -140 -204 -260h136c22 0 35 2 44 17c7 10 9 17 19 17h12l-15 -81h-259z" />
    <glyph glyph-name="onequarter" unicode="&#xbc;" horiz-adv-x="803" 
d="M137 307v344h-38v11c0 13 33 14 93 43v-398h-55zM151 -12l446 723h54l-445 -723h-55zM673 0v119h-182v18l216 261h21v-235c12 0 20 4 25 12c5 11 7 19 15 19h12l-15 -75h-37v-119h-55zM547 163h126v154z" />
    <glyph glyph-name="onesuperior" unicode="&#xb9;" horiz-adv-x="333" 
d="M144 279v368h-40v12c0 15 34 15 98 47v-427h-58z" />
    <glyph glyph-name="otilde" unicode="&#xf5;" horiz-adv-x="444" 
d="M222 405c115 0 195 -85 195 -208s-80 -209 -195 -209s-194 87 -194 209s79 208 194 208zM222 368c-71 0 -102 -56 -102 -171s31 -172 102 -172c72 0 102 57 102 172s-30 171 -102 171zM336 604h26c-13 -67 -44 -99 -95 -99c-11 0 -23 1 -36 4l-53 14c-8 2 -18 3 -28 3
c-22 0 -34 -14 -43 -44h-25c12 69 44 104 96 104c11 0 21 -2 31 -5l54 -14c11 -3 21 -4 27 -4c24 0 37 11 46 41z" />
    <glyph glyph-name="plusminus" unicode="&#xb1;" horiz-adv-x="833" 
d="M382 582h69v-166h258v-68h-258v-166h-69v166h-258v68h258v166zM124 83h585v-69h-585v69z" />
    <glyph glyph-name="registered" unicode="&#xae;" horiz-adv-x="822" 
d="M412 679c91 0 182 -38 247 -104c63 -64 99 -153 99 -247c0 -89 -37 -178 -106 -246c-65 -64 -149 -98 -246 -98c-88 0 -174 37 -240 102c-67 66 -102 151 -102 242c0 95 35 181 101 248c65 66 154 103 247 103zM412 637c-80 0 -158 -33 -215 -91
c-58 -59 -88 -134 -88 -218c0 -80 31 -154 89 -212c59 -59 132 -89 213 -89s156 31 213 89c58 59 89 135 89 212c0 84 -32 164 -88 220s-135 89 -213 89zM228 534h194c99 0 155 -42 155 -95c0 -56 -43 -84 -139 -101c61 -18 92 -47 105 -101c10 -40 2 -75 33 -75
c20 0 31 22 31 64h22v-9c0 -55 -28 -85 -78 -85c-32 0 -56 11 -66 30c-17 31 -7 70 -15 101c-12 47 -43 68 -96 68h-14v-120c0 -34 15 -45 58 -48v-22h-190v22c44 2 59 13 59 48v252c0 35 -15 46 -59 49v22zM360 352c14 -1 25 -1 31 -1c70 0 108 32 108 84
c0 45 -33 78 -90 78c-33 0 -49 -11 -49 -34v-127z" />
    <glyph glyph-name="scaron" unicode="&#x161;" horiz-adv-x="333" 
d="M301 120c0 -79 -57 -132 -144 -132c-78 0 -128 37 -128 85c0 28 17 47 38 47c27 0 44 -16 44 -40c0 -9 -3 -19 -3 -27c0 -19 20 -30 58 -30c48 0 77 28 77 64c0 44 -33 55 -97 84c-72 33 -112 57 -112 117c0 69 51 117 132 117c66 0 107 -30 107 -70
c0 -23 -15 -37 -40 -37c-20 0 -34 12 -34 32c0 14 7 22 7 24c0 11 -15 18 -43 18c-39 0 -63 -20 -63 -52c0 -42 36 -48 98 -76c69 -31 103 -60 103 -124zM25 630h28l114 -103l114 103h28l-113 -171h-58z" />
    <glyph glyph-name="thorn" unicode="&#xfe;" horiz-adv-x="487" 
d="M156 -59c0 -35 2 -54 16 -60c15 -6 31 -6 31 -25v-18h-172v18c0 19 13 18 27 25c13 6 15 25 15 60v675c0 35 -2 55 -15 61c-14 7 -27 6 -27 25v18l125 2v-376c37 39 79 57 129 57c102 0 174 -79 174 -206s-72 -206 -174 -206c-50 0 -92 18 -129 57v-107zM156 106
c26 -46 63 -71 101 -71c65 0 110 58 110 162c0 103 -47 161 -107 161c-42 0 -77 -24 -104 -71v-181z" />
    <glyph glyph-name="threequarters" unicode="&#xbe;" horiz-adv-x="803" 
d="M10 303l1 16c0 6 4 7 14 7c3 0 8 -1 17 -1c97 0 167 56 167 119c0 41 -28 66 -70 66c-17 0 -34 -5 -54 -13l-6 8c-2 2 -2 4 -2 6c0 9 15 14 39 28c53 32 83 56 83 91c0 27 -19 45 -50 45c-32 0 -65 -20 -102 -59l-10 10c-2 2 -4 4 -4 6c0 5 7 15 23 29
c35 29 72 44 108 44c51 0 84 -27 84 -69c0 -36 -27 -65 -82 -92h6c64 0 102 -34 102 -90c0 -41 -21 -78 -62 -108c-40 -30 -94 -45 -162 -45c-13 0 -26 0 -40 2zM151 -12l446 723h54l-445 -723h-55zM673 0v119h-182v18l216 261h21v-235c12 0 20 4 25 12c5 11 7 19 15 19h12
l-15 -75h-37v-119h-55zM547 163h126v154z" />
    <glyph glyph-name="threesuperior" unicode="&#xb3;" horiz-adv-x="333" 
d="M11 275v17c1 7 5 7 15 7h18c102 0 175 59 175 127c0 43 -29 70 -73 70c-18 0 -36 -5 -57 -14l-6 9c-2 2 -2 4 -2 6c0 11 15 15 40 30c56 35 88 60 88 98c0 29 -21 48 -53 48c-34 0 -68 -21 -107 -63l-10 10c-3 3 -5 5 -5 8c0 4 8 16 25 30c36 31 75 48 113 48
c53 0 88 -30 88 -75c0 -38 -28 -69 -86 -98h6c67 0 107 -37 107 -97c0 -43 -22 -83 -65 -116c-42 -31 -99 -48 -170 -48c-13 0 -27 1 -41 3z" />
    <glyph glyph-name="trademark" unicode="&#x2122;" horiz-adv-x="822" 
d="M122 704h217l5 -89h-13c-5 51 -25 74 -66 74h-8v-207c0 -16 7 -25 20 -26l16 -1v-14h-124v14l15 1c13 1 21 10 21 26v207h-8c-42 0 -62 -22 -67 -74h-13zM381 704h93l67 -191l70 191h88v-12l-14 -1c-14 -1 -21 -10 -21 -26v-183c0 -16 7 -25 21 -26l14 -1v-14h-117v14
l15 1c13 1 21 10 21 26v189l-84 -231h-10l-84 232v-190c0 -16 8 -25 21 -26l16 -1v-14h-96v14l16 1c13 1 21 10 21 26v181c0 16 -8 25 -21 26l-16 2v13z" />
    <glyph glyph-name="twosuperior" unicode="&#xb2;" horiz-adv-x="333" 
d="M3 279v22c137 141 212 237 212 307c0 42 -27 68 -68 68c-35 0 -68 -20 -100 -60l-15 9c-2 1 -4 4 -4 6c0 4 6 12 16 22c35 35 75 53 124 53c70 0 114 -39 114 -98c0 -72 -82 -150 -213 -279h142c24 0 37 3 47 19c7 10 9 17 19 17h13l-15 -86h-272z" />
    <glyph glyph-name="uacute" unicode="&#xfa;" horiz-adv-x="472" 
d="M314 290c0 35 -2 54 -15 60c-14 7 -27 7 -27 26v18l125 2v-294c0 -35 1 -54 14 -60s28 -7 28 -26v-16l-123 -9l-2 55c-35 -37 -74 -55 -119 -55c-85 0 -122 50 -122 153v146c0 35 -2 54 -15 60c-14 7 -27 7 -27 26v18l125 2v-293c0 -41 22 -63 60 -63c54 0 98 43 98 103
v147zM344 559l-161 -100h-33l141 146c18 18 31 29 48 29c20 0 35 -14 35 -34c0 -14 -10 -28 -30 -41z" />
    <glyph glyph-name="ucircumflex" unicode="&#xfb;" horiz-adv-x="472" 
d="M314 290c0 35 -2 54 -15 60c-14 7 -27 7 -27 26v18l125 2v-294c0 -35 1 -54 14 -60s28 -7 28 -26v-16l-123 -9l-2 55c-35 -37 -74 -55 -119 -55c-85 0 -122 50 -122 153v146c0 35 -2 54 -15 60c-14 7 -27 7 -27 26v18l125 2v-293c0 -41 22 -63 60 -63c54 0 98 43 98 103
v147zM207 630h58l113 -171h-28l-114 103l-114 -103h-28z" />
    <glyph glyph-name="udieresis" unicode="&#xfc;" horiz-adv-x="472" 
d="M314 290c0 35 -2 54 -15 60c-14 7 -27 7 -27 26v18l125 2v-294c0 -35 1 -54 14 -60s28 -7 28 -26v-16l-123 -9l-2 55c-35 -37 -74 -55 -119 -55c-85 0 -122 50 -122 153v146c0 35 -2 54 -15 60c-14 7 -27 7 -27 26v18l125 2v-293c0 -41 22 -63 60 -63c54 0 98 43 98 103
v147zM150 584c26 0 49 -23 49 -49c0 -28 -21 -49 -49 -49s-48 21 -48 49c0 26 22 49 48 49zM322 584c26 0 48 -23 48 -49c0 -28 -20 -49 -48 -49s-49 21 -49 49c0 26 23 49 49 49z" />
    <glyph glyph-name="ugrave" unicode="&#xf9;" horiz-adv-x="472" 
d="M314 290c0 35 -2 54 -15 60c-14 7 -27 7 -27 26v18l125 2v-294c0 -35 1 -54 14 -60s28 -7 28 -26v-16l-123 -9l-2 55c-35 -37 -74 -55 -119 -55c-85 0 -122 50 -122 153v146c0 35 -2 54 -15 60c-14 7 -27 7 -27 26v18l125 2v-293c0 -41 22 -63 60 -63c54 0 98 43 98 103
v147zM181 605l141 -146h-33l-161 100c-20 13 -30 27 -30 41c0 20 15 34 35 34c17 0 30 -11 48 -29z" />
    <glyph glyph-name="yacute" unicode="&#xfd;" horiz-adv-x="405" 
d="M227 111l79 189c4 10 6 20 6 30c0 31 -37 18 -37 46v18h134v-18c0 -8 -4 -16 -7 -17c-26 -12 -37 -30 -52 -64l-135 -309c-43 -98 -96 -148 -152 -148c-42 0 -65 20 -65 50c0 25 15 41 38 41c32 0 31 -35 58 -35c24 0 51 38 86 112l-120 290c-12 30 -17 48 -42 58
c-10 4 -18 7 -18 22v18h176v-18c0 -26 -34 -17 -34 -48c0 -8 2 -18 8 -31zM311 559l-161 -100h-33l141 146c18 18 31 29 48 29c20 0 35 -14 35 -34c0 -14 -10 -28 -30 -41z" />
    <glyph glyph-name="ydieresis" unicode="&#xff;" horiz-adv-x="405" 
d="M227 111l79 189c4 10 6 20 6 30c0 31 -37 18 -37 46v18h134v-18c0 -8 -4 -16 -7 -17c-26 -12 -37 -30 -52 -64l-135 -309c-43 -98 -96 -148 -152 -148c-42 0 -65 20 -65 50c0 25 15 41 38 41c32 0 31 -35 58 -35c24 0 51 38 86 112l-120 290c-12 30 -17 48 -42 58
c-10 4 -18 7 -18 22v18h176v-18c0 -26 -34 -17 -34 -48c0 -8 2 -18 8 -31zM117 584c26 0 49 -23 49 -49c0 -28 -21 -49 -49 -49s-48 21 -48 49c0 26 22 49 48 49zM289 584c26 0 48 -23 48 -49c0 -28 -20 -49 -48 -49s-49 21 -49 49c0 26 23 49 49 49z" />
    <glyph glyph-name="zcaron" unicode="&#x17e;" horiz-adv-x="396" 
d="M350 394l8 -15l-228 -342h154c56 0 69 48 83 48c11 0 13 -6 13 -18v-67h-354l-7 14l229 342h-126c-45 0 -53 -41 -69 -41c-11 0 -13 7 -13 23v56h310zM56 630h28l114 -103l114 103h28l-113 -171h-58z" />
    </font>
</defs>
</svg>
